<?xml version="1.0" encoding="UTF-8" standalone="no"?>
<!DOCTYPE svg PUBLIC "-//W3C//DTD SVG 1.1//EN" "http://www.w3.org/Graphics/SVG/1.1/DTD/svg11.dtd">
<svg width="100%" height="100%" viewBox="0 0 8 17" version="1.1" xmlns="http://www.w3.org/2000/svg" xmlns:xlink="http://www.w3.org/1999/xlink" xml:space="preserve" xmlns:serif="http://www.serif.com/" style="fill-rule:evenodd;clip-rule:evenodd;stroke-linejoin:round;stroke-miterlimit:2;">
    <g transform="matrix(1,0,0,1,0,-38)">
        <g id="_1" serif:id="1" transform="matrix(0.496875,0,0,1,0,38.5842)">
            <rect x="0" y="0" width="16" height="16" style="fill:none;"/>
            <clipPath id="_clip1">
                <rect x="0" y="0" width="16" height="16"/>
            </clipPath>
            <g clip-path="url(#_clip1)">
                <g id="_11" serif:id="1" transform="matrix(2.01258,0,0,1,-42.4621,-1.77636e-15)">
                    <path d="M21.098,7.586C21.115,7.584 21.131,7.583 21.148,7.583L24.029,7.583L21.28,4.835C21.105,4.659 21.105,4.374 21.28,4.199C21.456,4.023 21.741,4.023 21.917,4.199L25.082,7.364L28.247,4.199C28.422,4.023 28.707,4.023 28.883,4.199C29.059,4.374 29.059,4.659 28.883,4.835L26.135,7.583L28.998,7.583C29.015,7.583 29.032,7.584 29.048,7.586L29.048,8.414C29.032,8.416 29.015,8.417 28.998,8.417L25.498,8.417L25.498,11.5C25.498,11.73 25.312,11.917 25.082,11.917C24.852,11.917 24.665,11.73 24.665,11.5L24.665,8.417L21.148,8.417C21.131,8.417 21.115,8.416 21.098,8.414L21.098,7.586Z"/>
                </g>
            </g>
        </g>
    </g>
</svg>
