<?xml version="1.0" encoding="UTF-8" standalone="no"?><!DOCTYPE svg PUBLIC "-//W3C//DTD SVG 1.1//EN" "http://www.w3.org/Graphics/SVG/1.1/DTD/svg11.dtd"><svg width="100%" height="100%" viewBox="0 0 10 16" version="1.1" xmlns="http://www.w3.org/2000/svg" xmlns:xlink="http://www.w3.org/1999/xlink" xml:space="preserve" xmlns:serif="http://www.serif.com/" style="fill-rule:evenodd;clip-rule:evenodd;stroke-linejoin:round;stroke-miterlimit:2;"><rect id="_2" serif:id="2" x="0" y="0" width="10" height="16" style="fill:none;"/><clipPath id="_clip1"><rect x="0" y="0" width="10" height="16"/></clipPath><g clip-path="url(#_clip1)"><path id="_00" serif:id="00" d="M4.519,11.574l-0,-3.574l1,-0l-0,3.574c-0,0.235 -0.225,0.426 -0.5,0.426c-0.276,-0 -0.5,-0.191 -0.5,-0.426Z"/><rect id="number" x="-0.003" y="7.583" width="10.003" height="0.833"/><g id="_1" serif:id="1"><path d="M5.405,8.095l3.433,-3.433c0.223,-0.223 0.246,-0.563 0.051,-0.758c-0.195,-0.195 -0.535,-0.172 -0.758,0.051l-3.433,3.433c-0.224,0.224 -0.247,0.563 -0.052,0.758c0.196,0.196 0.535,0.173 0.759,-0.051Z"/><path d="M5.302,7.388l-3.433,-3.433c-0.223,-0.223 -0.563,-0.246 -0.758,-0.051c-0.195,0.195 -0.172,0.535 0.051,0.758l3.433,3.433c0.224,0.224 0.563,0.247 0.759,0.051c0.195,-0.195 0.172,-0.534 -0.052,-0.758Z"/></g><circle id="_21" serif:id="2" cx="5" cy="5.75" r="0.75"/></g></svg>