<?xml version="1.0" encoding="UTF-8" standalone="no"?>
<!DOCTYPE svg PUBLIC "-//W3C//DTD SVG 1.1//EN" "http://www.w3.org/Graphics/SVG/1.1/DTD/svg11.dtd">
<svg width="100%" height="100%" viewBox="0 0 8 17" version="1.1" xmlns="http://www.w3.org/2000/svg" xmlns:xlink="http://www.w3.org/1999/xlink" xml:space="preserve" xmlns:serif="http://www.serif.com/" style="fill-rule:evenodd;clip-rule:evenodd;stroke-linejoin:round;stroke-miterlimit:2;">
    <g transform="matrix(1,0,0,1,0,-77)">
        <g id="_3" serif:id="3" transform="matrix(0.496875,0,0,1,0,77.1685)">
            <rect x="0" y="0" width="16" height="16" style="fill:none;"/>
            <g id="_31" serif:id="3" transform="matrix(2.01258,0,0,1,-84.9242,-1.77636e-15)">
                <path d="M42.197,7.586C42.213,7.584 42.23,7.583 42.247,7.583L45.127,7.583L42.378,4.835C42.216,4.672 42.204,4.415 42.343,4.239C42.419,4.135 42.541,4.067 42.68,4.067L49.68,4.067C49.717,4.067 49.753,4.072 49.789,4.081C49.85,4.098 49.907,4.128 49.954,4.17C49.978,4.191 49.998,4.213 50.017,4.238L50.017,4.239C50.156,4.415 50.144,4.672 49.981,4.835L47.233,7.583L50.097,7.583C50.114,7.583 50.13,7.584 50.147,7.586L50.147,8.414C50.13,8.416 50.114,8.417 50.097,8.417L46.597,8.417L46.597,11.5C46.597,11.73 46.41,11.917 46.18,11.917C45.95,11.917 45.763,11.73 45.763,11.5L45.763,8.417L42.247,8.417C42.23,8.417 42.213,8.416 42.197,8.414L42.197,7.586ZM48.643,4.9L43.717,4.9L46.18,7.364L48.643,4.9ZM46.18,5.07C46.64,5.07 47.013,5.443 47.013,5.903C47.013,6.363 46.64,6.737 46.18,6.737C45.72,6.737 45.347,6.363 45.347,5.903C45.347,5.443 45.72,5.07 46.18,5.07Z"/>
            </g>
        </g>
    </g>
</svg>
