<?xml version="1.0" encoding="UTF-8" standalone="no"?>
<!DOCTYPE svg PUBLIC "-//W3C//DTD SVG 1.1//EN" "http://www.w3.org/Graphics/SVG/1.1/DTD/svg11.dtd">
<svg width="100%" height="100%" viewBox="0 0 8 17" version="1.1" xmlns="http://www.w3.org/2000/svg" xmlns:xlink="http://www.w3.org/1999/xlink" xml:space="preserve" xmlns:serif="http://www.serif.com/" style="fill-rule:evenodd;clip-rule:evenodd;stroke-linejoin:round;stroke-miterlimit:2;">
    <g transform="matrix(1,0,0,1,0,-96)">
        <g id="_4" serif:id="4" transform="matrix(0.496875,0,0,1,4.44089e-16,96.4606)">
            <rect x="0" y="0" width="16" height="16" style="fill:none;"/>
            <g id="_41" serif:id="4" transform="matrix(2.01258,0,0,1,-106.155,-1.77636e-15)">
                <path d="M52.746,7.586C52.762,7.584 52.779,7.583 52.796,7.583L56.312,7.583L56.312,4.5C56.312,4.27 56.499,4.083 56.729,4.083C56.959,4.083 57.146,4.27 57.146,4.5L57.146,7.583L60.646,7.583C60.663,7.583 60.679,7.584 60.696,7.586L60.696,8.414C60.679,8.416 60.663,8.417 60.646,8.417L57.782,8.417L60.531,11.165C60.706,11.341 60.706,11.626 60.531,11.801C60.355,11.977 60.07,11.977 59.894,11.801L56.729,8.636L53.564,11.801C53.388,11.977 53.103,11.977 52.928,11.801C52.752,11.626 52.752,11.341 52.928,11.165L55.676,8.417L52.796,8.417C52.779,8.417 52.762,8.416 52.746,8.414L52.746,7.586Z"/>
            </g>
        </g>
    </g>
</svg>
