<?xml version="1.0" encoding="UTF-8" standalone="no"?>
<!DOCTYPE svg PUBLIC "-//W3C//DTD SVG 1.1//EN" "http://www.w3.org/Graphics/SVG/1.1/DTD/svg11.dtd">
<svg width="100%" height="100%" viewBox="0 0 8 17" version="1.1" xmlns="http://www.w3.org/2000/svg" xmlns:xlink="http://www.w3.org/1999/xlink" xml:space="preserve" xmlns:serif="http://www.serif.com/" style="fill-rule:evenodd;clip-rule:evenodd;stroke-linejoin:round;stroke-miterlimit:2;">
    <g transform="matrix(1,0,0,1,0,-115)">
        <g id="_5" serif:id="5" transform="matrix(0.496875,0,0,1,4.44089e-16,115.753)">
            <rect x="0" y="0" width="16" height="16" style="fill:none;"/>
            <clipPath id="_clip1">
                <rect x="0" y="0" width="16" height="16"/>
            </clipPath>
            <g clip-path="url(#_clip1)">
                <g id="_51" serif:id="5" transform="matrix(2.01258,0,0,1,-127.386,-1.77636e-15)">
                    <path d="M63.295,7.586C63.311,7.584 63.328,7.583 63.345,7.583L66.225,7.583L63.477,4.835C63.301,4.659 63.301,4.374 63.477,4.199C63.652,4.023 63.938,4.023 64.113,4.199L67.278,7.364L70.443,4.199C70.619,4.023 70.904,4.023 71.08,4.199C71.255,4.374 71.255,4.659 71.08,4.835L68.331,7.583L71.195,7.583C71.212,7.583 71.229,7.584 71.245,7.586L71.245,8.414C71.229,8.416 71.212,8.417 71.195,8.417L68.331,8.417L71.08,11.165C71.255,11.341 71.255,11.626 71.08,11.801C70.904,11.977 70.619,11.977 70.443,11.801L67.278,8.636L64.113,11.801C63.938,11.977 63.652,11.977 63.477,11.801C63.301,11.626 63.301,11.341 63.477,11.165L66.225,8.417L63.345,8.417C63.328,8.417 63.311,8.416 63.295,8.414L63.295,7.586Z"/>
                </g>
            </g>
        </g>
    </g>
</svg>
