<?xml version="1.0" encoding="UTF-8" standalone="no"?>
<!DOCTYPE svg PUBLIC "-//W3C//DTD SVG 1.1//EN" "http://www.w3.org/Graphics/SVG/1.1/DTD/svg11.dtd">
<svg width="100%" height="100%" viewBox="0 0 8 17" version="1.1" xmlns="http://www.w3.org/2000/svg" xmlns:xlink="http://www.w3.org/1999/xlink" xml:space="preserve" xmlns:serif="http://www.serif.com/" style="fill-rule:evenodd;clip-rule:evenodd;stroke-linejoin:round;stroke-miterlimit:2;">
    <g transform="matrix(1,0,0,1,0,-135)">
        <g id="_6" serif:id="6" transform="matrix(0.496875,0,0,1,4.44089e-16,135.045)">
            <rect x="0" y="0" width="16" height="16" style="fill:none;"/>
            <g id="_61" serif:id="6" transform="matrix(2.01258,0,0,1,-148.617,-1.77636e-15)">
                <path d="M73.844,7.586C73.861,7.584 73.877,7.583 73.894,7.583L76.774,7.583L74.026,4.835C73.85,4.659 73.85,4.374 74.026,4.199C74.202,4.023 74.487,4.023 74.662,4.199L77.827,7.364L80.993,4.199C81.168,4.023 81.453,4.023 81.629,4.199C81.805,4.374 81.805,4.659 81.629,4.835L78.881,7.583L81.744,7.583C81.761,7.583 81.778,7.584 81.794,7.586L81.794,8.414C81.778,8.416 81.761,8.417 81.744,8.417L78.881,8.417L81.629,11.165C81.805,11.341 81.805,11.626 81.629,11.801C81.453,11.977 81.168,11.977 80.993,11.801L77.827,8.636L74.662,11.801C74.487,11.977 74.202,11.977 74.026,11.801C73.85,11.626 73.85,11.341 74.026,11.165L76.774,8.417L73.894,8.417C73.877,8.417 73.861,8.416 73.844,8.414L73.844,7.586ZM77.827,5.07C78.287,5.07 78.661,5.443 78.661,5.903C78.661,6.363 78.287,6.737 77.827,6.737C77.368,6.737 76.994,6.363 76.994,5.903C76.994,5.443 77.368,5.07 77.827,5.07Z"/>
            </g>
        </g>
    </g>
</svg>
