<?xml version="1.0" encoding="UTF-8" standalone="no"?>
<!DOCTYPE svg PUBLIC "-//W3C//DTD SVG 1.1//EN" "http://www.w3.org/Graphics/SVG/1.1/DTD/svg11.dtd">
<svg width="100%" height="100%" viewBox="0 0 8 17" version="1.1" xmlns="http://www.w3.org/2000/svg" xmlns:xlink="http://www.w3.org/1999/xlink" xml:space="preserve" xmlns:serif="http://www.serif.com/" style="fill-rule:evenodd;clip-rule:evenodd;stroke-linejoin:round;stroke-miterlimit:2;">
    <g transform="matrix(1,0,0,1,0,-154)">
        <g id="_7" serif:id="7" transform="matrix(0.496875,0,0,1,0,154.337)">
            <rect x="0" y="0" width="16" height="16" style="fill:none;"/>
            <g id="_71" serif:id="7" transform="matrix(2.01258,0,0,1,-169.848,0)">
                <path d="M84.393,7.586C84.41,7.584 84.427,7.583 84.443,7.583L87.324,7.583L84.575,4.835C84.412,4.672 84.401,4.415 84.54,4.239C84.615,4.135 84.738,4.067 84.877,4.067L91.877,4.067C91.913,4.067 91.95,4.072 91.986,4.081C92.047,4.098 92.104,4.128 92.151,4.17C92.174,4.191 92.195,4.213 92.213,4.238L92.214,4.239C92.353,4.415 92.341,4.672 92.178,4.835L89.43,7.583L92.293,7.583C92.31,7.583 92.327,7.584 92.343,7.586L92.343,8.414C92.327,8.416 92.31,8.417 92.293,8.417L89.43,8.417L92.178,11.165C92.354,11.341 92.354,11.626 92.178,11.801C92.002,11.977 91.717,11.977 91.542,11.801L88.377,8.636L85.212,11.801C85.036,11.977 84.751,11.977 84.575,11.801C84.4,11.626 84.4,11.341 84.575,11.165L87.324,8.417L84.443,8.417C84.427,8.417 84.41,8.416 84.393,8.414L84.393,7.586ZM90.84,4.9L85.913,4.9L88.377,7.364L90.84,4.9ZM88.377,5.07C88.837,5.07 89.21,5.443 89.21,5.903C89.21,6.363 88.837,6.737 88.377,6.737C87.917,6.737 87.543,6.363 87.543,5.903C87.543,5.443 87.917,5.07 88.377,5.07Z"/>
            </g>
        </g>
    </g>
</svg>
