<?xml version="1.0" encoding="UTF-8" standalone="no"?>
<!DOCTYPE svg PUBLIC "-//W3C//DTD SVG 1.1//EN" "http://www.w3.org/Graphics/SVG/1.1/DTD/svg11.dtd">
<svg width="100%" height="100%" viewBox="0 0 8 17" version="1.1" xmlns="http://www.w3.org/2000/svg" xmlns:xlink="http://www.w3.org/1999/xlink" xml:space="preserve" xmlns:serif="http://www.serif.com/" style="fill-rule:evenodd;clip-rule:evenodd;stroke-linejoin:round;stroke-miterlimit:2;">
    <g transform="matrix(1,0,0,1,0,-192)">
        <g id="_9" serif:id="9" transform="matrix(0.496875,0,0,1,4.44089e-16,192.921)">
            <rect x="0" y="0" width="16" height="16" style="fill:none;"/>
            <g id="_91" serif:id="9" transform="matrix(2.01258,0,0,1,-212.31,-1.77636e-15)">
                <path d="M105.492,7.586C105.508,7.584 105.525,7.583 105.542,7.583L108.422,7.583L105.674,4.835C105.498,4.659 105.498,4.374 105.674,4.199C105.849,4.023 106.134,4.023 106.31,4.199L109.475,7.364L112.64,4.199C112.816,4.023 113.101,4.023 113.276,4.199C113.452,4.374 113.452,4.659 113.276,4.835L110.528,7.583L113.392,7.583C113.409,7.583 113.425,7.584 113.442,7.586L113.442,8.414C113.425,8.416 113.409,8.417 113.392,8.417L110.528,8.417L113.276,11.165C113.452,11.341 113.452,11.626 113.276,11.801C113.101,11.977 112.816,11.977 112.64,11.801L109.475,8.636L106.31,11.801C106.134,11.977 105.849,11.977 105.674,11.801C105.498,11.626 105.498,11.341 105.674,11.165L108.422,8.417L105.542,8.417C105.525,8.417 105.508,8.416 105.492,8.414L105.492,7.586ZM109.475,10.927C109.935,10.927 110.308,10.554 110.308,10.094C110.308,9.634 109.935,9.26 109.475,9.26C109.015,9.26 108.642,9.634 108.642,10.094C108.642,10.554 109.015,10.927 109.475,10.927Z"/>
            </g>
        </g>
    </g>
</svg>
