<?xml version="1.0" encoding="UTF-8" standalone="no"?>
<!DOCTYPE svg PUBLIC "-//W3C//DTD SVG 1.1//EN" "http://www.w3.org/Graphics/SVG/1.1/DTD/svg11.dtd">
<svg width="100%" height="100%" viewBox="0 0 8 16" version="1.1" xmlns="http://www.w3.org/2000/svg" xmlns:xlink="http://www.w3.org/1999/xlink" xml:space="preserve" xmlns:serif="http://www.serif.com/" style="fill-rule:evenodd;clip-rule:evenodd;stroke-linejoin:round;stroke-miterlimit:2;">
    <g transform="matrix(1,0,0,1,-90,0)">
        <g id="_9" serif:id="9" transform="matrix(0.496875,0,0,1,90,3.55271e-15)">
            <rect x="0" y="0" width="16" height="16" style="fill:none;"/>
            <clipPath id="_clip1">
                <rect x="0" y="0" width="16" height="16"/>
            </clipPath>
            <g clip-path="url(#_clip1)">
                <g id="_10" serif:id="10" transform="matrix(2.01258,0,0,1,-8.05085,0)">
                    <g transform="matrix(0.957052,0.00141525,-0.00861127,-0.957089,-31.902,15.7227)">
                        <path d="M42.118,8.429L45.691,4.83C45.873,4.646 45.87,4.348 45.685,4.165C45.5,3.981 45.202,3.98 45.02,4.164L41.447,7.763C41.266,7.946 41.268,8.244 41.453,8.428C41.639,8.612 41.937,8.612 42.118,8.429Z"/>
                    </g>
                    <g transform="matrix(-0.957052,0.00141525,0.00861127,-0.957089,47.869,15.7227)">
                        <path d="M42.118,8.429L45.691,4.83C45.873,4.646 45.87,4.348 45.685,4.165C45.5,3.981 45.202,3.98 45.02,4.164L41.447,7.763C41.266,7.946 41.268,8.244 41.453,8.428C41.639,8.612 41.937,8.612 42.118,8.429Z"/>
                    </g>
                </g>
                <g id="_20" serif:id="20" transform="matrix(1.67715,0,0,-0.833333,-40.6207,95.0937)">
                    <circle cx="29" cy="102" r="1"/>
                </g>
                <g id="base" transform="matrix(2.01258,0,0,1,-8.05085,0)">
                    <g id="consonant" transform="matrix(6.12323e-17,-1,-1,-6.12323e-17,16,16)">
                        <path d="M7.583,4.1L7.583,8C7.583,8.23 7.77,8.417 8,8.417C8.23,8.417 8.417,8.23 8.417,8L8.417,4.1C8.417,3.87 8.23,3.683 8,3.683C7.77,3.683 7.583,3.87 7.583,4.1Z"/>
                    </g>
                    <g id="consonant1" serif:id="consonant" transform="matrix(6.12323e-17,-1,-1,-6.12323e-17,12.467,16)">
                        <path d="M7.583,4.5L7.583,8.417C7.583,8.647 7.77,8.833 8,8.833C8.23,8.833 8.417,8.647 8.417,8.417L8.417,4.5C8.417,4.27 8.23,4.083 8,4.083C7.77,4.083 7.583,4.27 7.583,4.5Z"/>
                    </g>
                </g>
                <g id="_1" serif:id="1" transform="matrix(2.01258,0,0,1,-8.08404,0)">
                    <g transform="matrix(0.957052,-0.00141525,-0.00861127,0.957089,-31.8855,0.277345)">
                        <path d="M42.118,8.429L45.691,4.83C45.873,4.646 45.87,4.348 45.685,4.165C45.5,3.981 45.202,3.98 45.02,4.164L41.447,7.763C41.266,7.946 41.268,8.244 41.453,8.428C41.639,8.612 41.937,8.612 42.118,8.429Z"/>
                    </g>
                    <g transform="matrix(-0.957052,-0.00141525,0.00861127,0.957089,47.8855,0.277345)">
                        <path d="M42.118,8.429L45.691,4.83C45.873,4.646 45.87,4.348 45.685,4.165C45.5,3.981 45.202,3.98 45.02,4.164L41.447,7.763C41.266,7.946 41.268,8.244 41.453,8.428C41.639,8.612 41.937,8.612 42.118,8.429Z"/>
                    </g>
                </g>
            </g>
        </g>
    </g>
</svg>
