<?xml version="1.0" encoding="UTF-8" standalone="no"?>
<!DOCTYPE svg PUBLIC "-//W3C//DTD SVG 1.1//EN" "http://www.w3.org/Graphics/SVG/1.1/DTD/svg11.dtd">
<svg width="100%" height="100%" viewBox="0 0 8 17" version="1.1" xmlns="http://www.w3.org/2000/svg" xmlns:xlink="http://www.w3.org/1999/xlink" xml:space="preserve" xmlns:serif="http://www.serif.com/" style="fill-rule:evenodd;clip-rule:evenodd;stroke-linejoin:round;stroke-miterlimit:2;">
    <g transform="matrix(1,0,0,1,0,-212)">
        <g id="a" transform="matrix(0.496875,0,0,1,4.44089e-16,212.213)">
            <rect x="0" y="0" width="16" height="16" style="fill:none;"/>
            <clipPath id="_clip1">
                <rect x="0" y="0" width="16" height="16"/>
            </clipPath>
            <g clip-path="url(#_clip1)">
                <g id="a1" serif:id="a" transform="matrix(2.01258,0,0,1,-233.541,-1.77636e-15)">
                    <path d="M116.041,7.586C116.057,7.584 116.074,7.583 116.091,7.583L118.971,7.583L116.223,4.835C116.047,4.659 116.047,4.374 116.223,4.199C116.398,4.023 116.683,4.023 116.859,4.199L120.024,7.364L123.189,4.199C123.365,4.023 123.65,4.023 123.826,4.199C124.001,4.374 124.001,4.659 123.826,4.835L121.077,7.583L123.941,7.583C123.958,7.583 123.974,7.584 123.991,7.586L123.991,8.414C123.974,8.416 123.958,8.417 123.941,8.417L121.077,8.417L123.826,11.165C124.001,11.341 124.001,11.626 123.826,11.801C123.65,11.977 123.365,11.977 123.189,11.801L120.024,8.636L116.859,11.801C116.683,11.977 116.398,11.977 116.223,11.801C116.047,11.626 116.047,11.341 116.223,11.165L118.971,8.417L116.091,8.417C116.074,8.417 116.057,8.416 116.041,8.414L116.041,7.586ZM120.024,10.927C120.484,10.927 120.857,10.554 120.857,10.094C120.857,9.634 120.484,9.26 120.024,9.26C119.564,9.26 119.191,9.634 119.191,10.094C119.191,10.554 119.564,10.927 120.024,10.927ZM120.024,5.07C120.484,5.07 120.857,5.443 120.857,5.903C120.857,6.363 120.484,6.737 120.024,6.737C119.564,6.737 119.191,6.363 119.191,5.903C119.191,5.443 119.564,5.07 120.024,5.07Z"/>
                </g>
            </g>
        </g>
    </g>
</svg>
