<?xml version="1.0" encoding="UTF-8" standalone="no"?>
<!DOCTYPE svg PUBLIC "-//W3C//DTD SVG 1.1//EN" "http://www.w3.org/Graphics/SVG/1.1/DTD/svg11.dtd">
<svg width="100%" height="100%" viewBox="0 0 16 16" version="1.1" xmlns="http://www.w3.org/2000/svg" xmlns:xlink="http://www.w3.org/1999/xlink" xml:space="preserve" xmlns:serif="http://www.serif.com/" style="fill-rule:evenodd;clip-rule:evenodd;stroke-linejoin:round;stroke-miterlimit:2;">
    <g transform="matrix(1,0,0,1,-17,0)">
        <g id="alveodental" transform="matrix(1,0,0,1,17,1.77636e-15)">
            <rect x="0" y="0" width="16" height="16" style="fill:none;"/>
            <g id="consonant" transform="matrix(1,0,0,1,-17,-1.77636e-15)">
                <path d="M24.583,7.583L21.5,7.583C21.27,7.583 21.083,7.77 21.083,8C21.083,8.23 21.27,8.417 21.5,8.417L22.586,8.417C21.671,9.134 21.083,10.249 21.083,11.5C21.083,11.73 21.27,11.917 21.5,11.917C21.73,11.917 21.917,11.73 21.917,11.5C21.917,9.939 23.078,8.648 24.583,8.445L24.583,11.5C24.583,11.73 24.77,11.917 25,11.917C25.23,11.917 25.417,11.73 25.417,11.5L25.417,8.445C26.922,8.648 28.083,9.94 28.083,11.5C28.083,11.73 28.27,11.917 28.5,11.917C28.73,11.917 28.917,11.73 28.917,11.5C28.917,10.249 28.329,9.134 27.414,8.417L28.5,8.417C28.73,8.417 28.917,8.23 28.917,8C28.917,7.77 28.73,7.583 28.5,7.583L25.417,7.583L25.417,4.5C25.417,4.27 25.23,4.083 25,4.083C24.77,4.083 24.583,4.27 24.583,4.5L24.583,7.583ZM24.975,0.583L25,0.583C27.162,0.583 28.917,2.338 28.917,4.5C28.917,4.73 28.73,4.917 28.5,4.917C28.27,4.917 28.083,4.73 28.083,4.5C28.083,2.798 26.702,1.417 25,1.417C23.298,1.417 21.917,2.798 21.917,4.5C21.917,4.73 21.73,4.917 21.5,4.917C21.27,4.917 21.083,4.73 21.083,4.5C21.083,2.347 22.825,0.597 24.975,0.583Z"/>
            </g>
        </g>
    </g>
</svg>
