<?xml version="1.0" encoding="UTF-8" standalone="no"?>
<!DOCTYPE svg PUBLIC "-//W3C//DTD SVG 1.1//EN" "http://www.w3.org/Graphics/SVG/1.1/DTD/svg11.dtd">
<svg width="100%" height="100%" viewBox="0 0 8 17" version="1.1" xmlns="http://www.w3.org/2000/svg" xmlns:xlink="http://www.w3.org/1999/xlink" xml:space="preserve" xmlns:serif="http://www.serif.com/" style="fill-rule:evenodd;clip-rule:evenodd;stroke-linejoin:round;stroke-miterlimit:2;">
    <g transform="matrix(1,0,0,1,0,-231)">
        <g id="b" transform="matrix(0.496875,0,0,1,0,231.505)">
            <rect x="0" y="0" width="16" height="16" style="fill:none;"/>
            <clipPath id="_clip1">
                <rect x="0" y="0" width="16" height="16"/>
            </clipPath>
            <g clip-path="url(#_clip1)">
                <g id="b1" serif:id="b" transform="matrix(2.01258,0,0,1,-254.773,-1.77636e-15)">
                    <path d="M126.59,7.586C126.607,7.584 126.623,7.583 126.64,7.583L129.52,7.583L126.772,4.835C126.609,4.672 126.597,4.415 126.736,4.239C126.812,4.135 126.935,4.067 127.073,4.067L134.073,4.067C134.11,4.067 134.147,4.072 134.182,4.081C134.243,4.098 134.3,4.128 134.348,4.17C134.371,4.191 134.392,4.213 134.41,4.238L134.41,4.239C134.549,4.415 134.538,4.672 134.375,4.835L131.626,7.583L134.49,7.583C134.507,7.583 134.524,7.584 134.54,7.586L134.54,8.414C134.524,8.416 134.507,8.417 134.49,8.417L131.626,8.417L134.375,11.165C134.55,11.341 134.55,11.626 134.375,11.801C134.199,11.977 133.914,11.977 133.738,11.801L130.573,8.636L127.408,11.801C127.233,11.977 126.948,11.977 126.772,11.801C126.596,11.626 126.596,11.341 126.772,11.165L129.52,8.417L126.64,8.417C126.623,8.417 126.607,8.416 126.59,8.414L126.59,7.586ZM130.573,10.927C131.033,10.927 131.407,10.554 131.407,10.094C131.407,9.634 131.033,9.26 130.573,9.26C130.113,9.26 129.74,9.634 129.74,10.094C129.74,10.554 130.113,10.927 130.573,10.927ZM133.037,4.9L128.11,4.9L130.573,7.364L133.037,4.9ZM130.573,5.07C131.033,5.07 131.407,5.443 131.407,5.903C131.407,6.363 131.033,6.737 130.573,6.737C130.113,6.737 129.74,6.363 129.74,5.903C129.74,5.443 130.113,5.07 130.573,5.07Z"/>
                </g>
            </g>
        </g>
    </g>
</svg>
