<?xml version="1.0" encoding="UTF-8" standalone="no"?>
<!DOCTYPE svg PUBLIC "-//W3C//DTD SVG 1.1//EN" "http://www.w3.org/Graphics/SVG/1.1/DTD/svg11.dtd">
<svg width="100%" height="100%" viewBox="0 0 8 17" version="1.1" xmlns="http://www.w3.org/2000/svg" xmlns:xlink="http://www.w3.org/1999/xlink" xml:space="preserve" xmlns:serif="http://www.serif.com/" style="fill-rule:evenodd;clip-rule:evenodd;stroke-linejoin:round;stroke-miterlimit:2;">
    <g transform="matrix(1,0,0,1,0,-250)">
        <g id="c" transform="matrix(0.496875,0,0,1,4.44089e-16,250.798)">
            <rect x="0" y="0" width="16" height="16" style="fill:none;"/>
            <g id="c1" serif:id="c" transform="matrix(2.01258,0,0,1,-276.004,-1.77636e-15)">
                <path d="M137.139,7.586C137.156,7.584 137.172,7.583 137.189,7.583L140.706,7.583L140.706,4.5C140.706,4.27 140.893,4.083 141.123,4.083C141.352,4.083 141.539,4.27 141.539,4.5L141.539,7.583L145.039,7.583C145.056,7.583 145.073,7.584 145.089,7.586L145.089,8.414C145.073,8.416 145.056,8.417 145.039,8.417L142.176,8.417L144.924,11.165C145.087,11.328 145.099,11.585 144.96,11.761C144.884,11.865 144.761,11.933 144.623,11.933L137.623,11.933C137.484,11.933 137.361,11.865 137.285,11.761C137.146,11.585 137.158,11.328 137.321,11.165L140.069,8.417L137.189,8.417C137.172,8.417 137.156,8.416 137.139,8.414L137.139,7.586ZM138.659,11.1L143.586,11.1L141.123,8.636L138.659,11.1ZM141.123,10.927C141.582,10.927 141.956,10.554 141.956,10.094C141.956,9.634 141.582,9.26 141.123,9.26C140.663,9.26 140.289,9.634 140.289,10.094C140.289,10.554 140.663,10.927 141.123,10.927Z"/>
            </g>
        </g>
    </g>
</svg>
