<?xml version="1.0" encoding="UTF-8" standalone="no"?>
<!DOCTYPE svg PUBLIC "-//W3C//DTD SVG 1.1//EN" "http://www.w3.org/Graphics/SVG/1.1/DTD/svg11.dtd">
<svg width="100%" height="100%" viewBox="0 0 16 16" version="1.1" xmlns="http://www.w3.org/2000/svg" xmlns:xlink="http://www.w3.org/1999/xlink" xml:space="preserve" xmlns:serif="http://www.serif.com/" style="fill-rule:evenodd;clip-rule:evenodd;stroke-linejoin:round;stroke-miterlimit:2;">
    <g transform="matrix(1,0,0,1,-17,-102)">
        <g id="close-front" serif:id="close front" transform="matrix(1,0,0,1,17,102)">
            <rect x="0" y="0" width="16" height="16" style="fill:none;"/>
            <g id="vowel" transform="matrix(1,0,0,1,-17,-102)">
                <path d="M21.5,117.417L28.5,117.417C28.73,117.417 28.917,117.23 28.917,117C28.917,116.77 28.73,116.583 28.5,116.583L21.5,116.583C21.27,116.583 21.083,116.77 21.083,117C21.083,117.23 21.27,117.417 21.5,117.417ZM24.559,106.108C22.613,106.327 21.096,107.974 21.083,109.975L21.083,110C21.083,112.153 22.825,113.903 24.975,113.917L25,113.917C27.162,113.917 28.917,112.162 28.917,110L28.917,109.975C28.904,107.973 27.386,106.325 25.439,106.108C25.625,104.583 26.925,103.4 28.5,103.4C28.73,103.4 28.917,103.213 28.917,102.983C28.917,102.753 28.73,102.566 28.5,102.566C26.967,102.566 25.639,103.449 24.996,104.733C24.35,103.458 23.026,102.583 21.5,102.583C21.27,102.583 21.083,102.77 21.083,103C21.083,103.23 21.27,103.417 21.5,103.417C23.069,103.417 24.366,104.591 24.559,106.108ZM28.083,110C28.083,108.298 26.702,106.917 25,106.917L24.98,106.917C23.294,106.927 21.927,108.294 21.917,109.98L21.917,110C21.917,111.702 23.298,113.083 25,113.083L25.02,113.083C26.712,113.073 28.083,111.695 28.083,110Z"/>
            </g>
        </g>
    </g>
</svg>
