<?xml version="1.0" encoding="UTF-8" standalone="no"?>
<!DOCTYPE svg PUBLIC "-//W3C//DTD SVG 1.1//EN" "http://www.w3.org/Graphics/SVG/1.1/DTD/svg11.dtd">
<svg width="100%" height="100%" viewBox="0 0 16 16" version="1.1" xmlns="http://www.w3.org/2000/svg" xmlns:xlink="http://www.w3.org/1999/xlink" xml:space="preserve" xmlns:serif="http://www.serif.com/" style="fill-rule:evenodd;clip-rule:evenodd;stroke-linejoin:round;stroke-miterlimit:2;">
    <g transform="matrix(1,0,0,1,-87,-102)">
        <g id="close-back" serif:id="close back" transform="matrix(1,0,0,1,87,102)">
            <rect x="0" y="0" width="16" height="16" style="fill:none;"/>
            <g id="vowel" transform="matrix(1,0,0,1,-87,-102)">
                <path d="M91.5,117.417L98.5,117.417C98.73,117.417 98.917,117.23 98.917,117C98.917,116.77 98.73,116.583 98.5,116.583L91.5,116.583C91.27,116.583 91.083,116.77 91.083,117C91.083,117.23 91.27,117.417 91.5,117.417ZM93.241,106.5C91.969,107.141 91.093,108.456 91.083,109.975L91.083,110C91.083,112.153 92.825,113.903 94.975,113.917L95,113.917C97.162,113.917 98.917,112.162 98.917,110L98.917,109.975C98.907,108.456 98.031,107.141 96.759,106.5C98.038,105.855 98.917,104.529 98.917,103C98.917,102.77 98.73,102.583 98.5,102.583C98.27,102.583 98.083,102.77 98.083,103C98.083,104.702 96.702,106.083 95,106.083C93.298,106.083 91.917,104.702 91.917,103C91.917,102.77 91.73,102.583 91.5,102.583C91.27,102.583 91.083,102.77 91.083,103C91.083,104.529 91.962,105.855 93.241,106.5ZM98.083,110C98.083,108.298 96.702,106.917 95,106.917L94.98,106.917C93.294,106.927 91.927,108.294 91.917,109.98L91.917,110C91.917,111.702 93.298,113.083 95,113.083L95.02,113.083C96.712,113.073 98.083,111.695 98.083,110Z"/>
            </g>
        </g>
    </g>
</svg>
