<?xml version="1.0" encoding="UTF-8" standalone="no"?>
<!DOCTYPE svg PUBLIC "-//W3C//DTD SVG 1.1//EN" "http://www.w3.org/Graphics/SVG/1.1/DTD/svg11.dtd">
<svg width="100%" height="100%" viewBox="0 0 16 16" version="1.1" xmlns="http://www.w3.org/2000/svg" xmlns:xlink="http://www.w3.org/1999/xlink" xml:space="preserve" xmlns:serif="http://www.serif.com/" style="fill-rule:evenodd;clip-rule:evenodd;stroke-linejoin:round;stroke-miterlimit:2;">
    <g transform="matrix(1,0,0,1,-52,-102)">
        <g id="close-central" serif:id="close central" transform="matrix(1,0,0,1,52,102)">
            <rect x="0" y="0" width="16" height="16" style="fill:none;"/>
            <g id="vowel" transform="matrix(1,0,0,1,-52,-102)">
                <path d="M56.5,117.417L63.5,117.417C63.73,117.417 63.917,117.23 63.917,117C63.917,116.77 63.73,116.583 63.5,116.583L56.5,116.583C56.27,116.583 56.083,116.77 56.083,117C56.083,117.23 56.27,117.417 56.5,117.417ZM59.583,106.105C57.625,106.313 56.096,107.965 56.083,109.975L56.083,110C56.083,112.153 57.825,113.903 59.975,113.917L60,113.917C62.162,113.917 63.917,112.162 63.917,110L63.917,109.975C63.904,107.965 62.375,106.313 60.417,106.105L60.417,102.983C60.417,102.753 60.23,102.566 60,102.566C59.77,102.566 59.583,102.753 59.583,102.983L59.583,106.105ZM63.083,110C63.083,108.298 61.702,106.917 60,106.917L59.98,106.917C58.294,106.927 56.927,108.294 56.917,109.98L56.917,110C56.917,111.702 58.298,113.083 60,113.083L60.02,113.083C61.712,113.073 63.083,111.695 63.083,110Z"/>
            </g>
        </g>
    </g>
</svg>
