<?xml version="1.0" encoding="UTF-8" standalone="no"?>
<!DOCTYPE svg PUBLIC "-//W3C//DTD SVG 1.1//EN" "http://www.w3.org/Graphics/SVG/1.1/DTD/svg11.dtd">
<svg width="100%" height="100%" viewBox="0 0 16 16" version="1.1" xmlns="http://www.w3.org/2000/svg" xmlns:xlink="http://www.w3.org/1999/xlink" xml:space="preserve" xmlns:serif="http://www.serif.com/" style="fill-rule:evenodd;clip-rule:evenodd;stroke-linejoin:round;stroke-miterlimit:2;">
    <g transform="matrix(1,0,0,1,0,-102)">
        <g id="close-front-alt" serif:id="close front alt" transform="matrix(1,0,0,1,0,102)">
            <rect x="0" y="0" width="16" height="16" style="fill:none;"/>
            <g id="vowel" transform="matrix(1,0,0,1,0,-102)">
                <path d="M4.5,117.417L11.5,117.417C11.73,117.417 11.917,117.23 11.917,117C11.917,116.77 11.73,116.583 11.5,116.583L4.5,116.583C4.27,116.583 4.083,116.77 4.083,117C4.083,117.23 4.27,117.417 4.5,117.417ZM7.559,106.108C5.613,106.327 4.096,107.974 4.083,109.975L4.083,110C4.083,112.153 5.825,113.903 7.975,113.917L8,113.917C10.162,113.917 11.917,112.162 11.917,110L11.917,109.975C11.904,107.973 10.386,106.325 8.439,106.108C8.625,104.583 9.925,103.4 11.5,103.4C11.73,103.4 11.917,103.213 11.917,102.983C11.917,102.753 11.73,102.566 11.5,102.566C9.967,102.566 8.639,103.449 7.996,104.733C7.35,103.458 6.026,102.583 4.5,102.583C4.27,102.583 4.083,102.77 4.083,103C4.083,103.23 4.27,103.417 4.5,103.417C6.069,103.417 7.366,104.591 7.559,106.108ZM11.083,110C11.083,108.298 9.702,106.917 8,106.917L7.98,106.917C6.294,106.927 4.927,108.294 4.917,109.98L4.917,110C4.917,111.702 6.298,113.083 8,113.083L8.02,113.083C9.712,113.073 11.083,111.695 11.083,110ZM8,109.167C8.46,109.167 8.833,109.54 8.833,110C8.833,110.46 8.46,110.833 8,110.833C7.54,110.833 7.167,110.46 7.167,110C7.167,109.54 7.54,109.167 8,109.167Z"/>
            </g>
        </g>
    </g>
</svg>
