<?xml version="1.0" encoding="UTF-8" standalone="no"?>
<!DOCTYPE svg PUBLIC "-//W3C//DTD SVG 1.1//EN" "http://www.w3.org/Graphics/SVG/1.1/DTD/svg11.dtd">
<svg width="100%" height="100%" viewBox="0 0 16 16" version="1.1" xmlns="http://www.w3.org/2000/svg" xmlns:xlink="http://www.w3.org/1999/xlink" xml:space="preserve" xmlns:serif="http://www.serif.com/" style="fill-rule:evenodd;clip-rule:evenodd;stroke-linejoin:round;stroke-miterlimit:2;">
    <g transform="matrix(1,0,0,1,-35,-102)">
        <g id="close-central-alt" serif:id="close central alt" transform="matrix(1,0,0,1,35,102)">
            <rect x="0" y="0" width="16" height="16" style="fill:none;"/>
            <g id="vowel" transform="matrix(1,0,0,1,-35,-102)">
                <path d="M39.5,117.417L46.5,117.417C46.73,117.417 46.917,117.23 46.917,117C46.917,116.77 46.73,116.583 46.5,116.583L39.5,116.583C39.27,116.583 39.083,116.77 39.083,117C39.083,117.23 39.27,117.417 39.5,117.417ZM42.583,106.105C40.625,106.313 39.096,107.965 39.083,109.975L39.083,110C39.083,112.153 40.825,113.903 42.975,113.917L43,113.917C45.162,113.917 46.917,112.162 46.917,110L46.917,109.975C46.904,107.965 45.375,106.313 43.417,106.105L43.417,102.983C43.417,102.753 43.23,102.566 43,102.566C42.77,102.566 42.583,102.753 42.583,102.983L42.583,106.105ZM46.083,110C46.083,108.298 44.702,106.917 43,106.917L42.98,106.917C41.294,106.927 39.927,108.294 39.917,109.98L39.917,110C39.917,111.702 41.298,113.083 43,113.083L43.02,113.083C44.712,113.073 46.083,111.695 46.083,110ZM43,109.167C43.46,109.167 43.833,109.54 43.833,110C43.833,110.46 43.46,110.833 43,110.833C42.54,110.833 42.167,110.46 42.167,110C42.167,109.54 42.54,109.167 43,109.167Z"/>
            </g>
        </g>
    </g>
</svg>
