<?xml version="1.0" encoding="UTF-8" standalone="no"?>
<!DOCTYPE svg PUBLIC "-//W3C//DTD SVG 1.1//EN" "http://www.w3.org/Graphics/SVG/1.1/DTD/svg11.dtd">
<svg width="100%" height="100%" viewBox="0 0 8 17" version="1.1" xmlns="http://www.w3.org/2000/svg" xmlns:xlink="http://www.w3.org/1999/xlink" xml:space="preserve" xmlns:serif="http://www.serif.com/" style="fill-rule:evenodd;clip-rule:evenodd;stroke-linejoin:round;stroke-miterlimit:2;">
    <g transform="matrix(1,0,0,1,0,-270)">
        <g id="d" transform="matrix(0.496875,0,0,1,0,270.09)">
            <rect x="0" y="0" width="16" height="16" style="fill:none;"/>
            <g id="d1" serif:id="d" transform="matrix(2.01258,0,0,1,-297.235,-1.77636e-15)">
                <path d="M147.688,7.586C147.705,7.584 147.722,7.583 147.739,7.583L150.619,7.583L147.87,4.835C147.695,4.659 147.695,4.374 147.87,4.199C148.046,4.023 148.331,4.023 148.507,4.199L151.672,7.364L154.837,4.199C155.012,4.023 155.298,4.023 155.473,4.199C155.649,4.374 155.649,4.659 155.473,4.835L152.725,7.583L155.588,7.583C155.605,7.583 155.622,7.584 155.638,7.586L155.638,8.414C155.622,8.416 155.605,8.417 155.588,8.417L152.725,8.417L155.473,11.165C155.636,11.328 155.648,11.585 155.509,11.761C155.433,11.865 155.31,11.933 155.172,11.933L148.172,11.933C148.033,11.933 147.91,11.865 147.835,11.761C147.696,11.585 147.707,11.328 147.87,11.165L150.619,8.417L147.739,8.417C147.722,8.417 147.705,8.416 147.688,8.414L147.688,7.586ZM149.208,11.1L154.135,11.1L151.672,8.636L149.208,11.1ZM151.672,10.927C152.132,10.927 152.505,10.554 152.505,10.094C152.505,9.634 152.132,9.26 151.672,9.26C151.212,9.26 150.838,9.634 150.838,10.094C150.838,10.554 151.212,10.927 151.672,10.927Z"/>
            </g>
        </g>
    </g>
</svg>
