<?xml version="1.0" encoding="UTF-8" standalone="no"?>
<!DOCTYPE svg PUBLIC "-//W3C//DTD SVG 1.1//EN" "http://www.w3.org/Graphics/SVG/1.1/DTD/svg11.dtd">
<svg width="100%" height="100%" viewBox="0 0 8 17" version="1.1" xmlns="http://www.w3.org/2000/svg" xmlns:xlink="http://www.w3.org/1999/xlink" xml:space="preserve" xmlns:serif="http://www.serif.com/" style="fill-rule:evenodd;clip-rule:evenodd;stroke-linejoin:round;stroke-miterlimit:2;">
    <g transform="matrix(1,0,0,1,0,-289)">
        <g id="e" transform="matrix(0.496875,0,0,1,0,289.382)">
            <rect x="0" y="0" width="16" height="16" style="fill:none;"/>
            <g id="e1" serif:id="e" transform="matrix(2.01258,0,0,1,-318.466,-1.77636e-15)">
                <path d="M158.238,7.586C158.254,7.584 158.271,7.583 158.288,7.583L161.168,7.583L158.419,4.835C158.244,4.659 158.244,4.374 158.419,4.199C158.595,4.023 158.88,4.023 159.056,4.199L162.221,7.364L165.386,4.199C165.562,4.023 165.847,4.023 166.022,4.199C166.198,4.374 166.198,4.659 166.022,4.835L163.274,7.583L166.138,7.583C166.154,7.583 166.171,7.584 166.188,7.586L166.188,8.414C166.171,8.416 166.154,8.417 166.138,8.417L163.274,8.417L166.022,11.165C166.185,11.328 166.197,11.585 166.058,11.761C165.982,11.865 165.859,11.933 165.721,11.933L158.721,11.933C158.582,11.933 158.46,11.865 158.384,11.761C158.245,11.585 158.257,11.328 158.419,11.165L161.168,8.417L158.288,8.417C158.271,8.417 158.254,8.416 158.238,8.414L158.238,7.586ZM159.757,11.1L164.684,11.1L162.221,8.636L159.757,11.1ZM162.221,10.927C162.681,10.927 163.054,10.554 163.054,10.094C163.054,9.634 162.681,9.26 162.221,9.26C161.761,9.26 161.388,9.634 161.388,10.094C161.388,10.554 161.761,10.927 162.221,10.927ZM162.221,5.07C162.681,5.07 163.054,5.443 163.054,5.903C163.054,6.363 162.681,6.737 162.221,6.737C161.761,6.737 161.388,6.363 161.388,5.903C161.388,5.443 161.761,5.07 162.221,5.07Z"/>
            </g>
        </g>
    </g>
</svg>
