<?xml version="1.0" encoding="UTF-8" standalone="no"?>
<!DOCTYPE svg PUBLIC "-//W3C//DTD SVG 1.1//EN" "http://www.w3.org/Graphics/SVG/1.1/DTD/svg11.dtd">
<svg width="100%" height="100%" viewBox="0 0 8 17" version="1.1" xmlns="http://www.w3.org/2000/svg" xmlns:xlink="http://www.w3.org/1999/xlink" xml:space="preserve" xmlns:serif="http://www.serif.com/" style="fill-rule:evenodd;clip-rule:evenodd;stroke-linejoin:round;stroke-miterlimit:2;">
    <g transform="matrix(1,0,0,1,0,-308)">
        <g id="f" transform="matrix(0.496875,0,0,1,4.44089e-16,308.674)">
            <rect x="0" y="0" width="16" height="16" style="fill:none;"/>
            <g id="f1" serif:id="f" transform="matrix(2.01258,0,0,1,-339.697,-1.77636e-15)">
                <path d="M168.787,7.586C168.803,7.584 168.82,7.583 168.837,7.583L171.717,7.583L168.969,4.835C168.806,4.672 168.794,4.415 168.933,4.239C169.009,4.135 169.132,4.067 169.27,4.067L176.27,4.067C176.307,4.067 176.344,4.072 176.379,4.081C176.44,4.098 176.497,4.128 176.545,4.17C176.568,4.191 176.589,4.213 176.607,4.238L176.607,4.239C176.746,4.415 176.734,4.672 176.571,4.835L173.823,7.583L176.687,7.583C176.704,7.583 176.72,7.584 176.737,7.586L176.737,8.414C176.72,8.416 176.704,8.417 176.687,8.417L173.823,8.417L176.571,11.165C176.734,11.328 176.746,11.585 176.607,11.761C176.531,11.865 176.409,11.933 176.27,11.933L169.27,11.933C169.132,11.933 169.009,11.865 168.933,11.761C168.794,11.585 168.806,11.328 168.969,11.165L171.717,8.417L168.837,8.417C168.82,8.417 168.803,8.416 168.787,8.414L168.787,7.586ZM170.307,11.1L175.233,11.1L172.77,8.636L170.307,11.1ZM172.77,10.927C173.23,10.927 173.603,10.554 173.603,10.094C173.603,9.634 173.23,9.26 172.77,9.26C172.31,9.26 171.937,9.634 171.937,10.094C171.937,10.554 172.31,10.927 172.77,10.927ZM175.233,4.9L170.307,4.9L172.77,7.364L175.233,4.9ZM172.762,5.07C173.222,5.07 173.595,5.443 173.595,5.903C173.595,6.363 173.222,6.737 172.762,6.737C172.302,6.737 171.928,6.363 171.928,5.903C171.928,5.443 172.302,5.07 172.762,5.07Z"/>
            </g>
        </g>
    </g>
</svg>
