<?xml version="1.0" encoding="UTF-8" standalone="no"?>
<!DOCTYPE svg PUBLIC "-//W3C//DTD SVG 1.1//EN" "http://www.w3.org/Graphics/SVG/1.1/DTD/svg11.dtd">
<svg width="100%" height="100%" viewBox="0 0 17 16" version="1.1" xmlns="http://www.w3.org/2000/svg" xmlns:xlink="http://www.w3.org/1999/xlink" xml:space="preserve" xmlns:serif="http://www.serif.com/" style="fill-rule:evenodd;clip-rule:evenodd;stroke-linejoin:round;stroke-miterlimit:2;">
    <g transform="matrix(1,0,0,1,-58,0)">
        <g id="invalid" transform="matrix(1,0,0,1,58.89,1.77636e-15)">
            <rect x="0" y="0" width="16" height="16" style="fill:none;"/>
            <g id="base" transform="matrix(1,0,0,1,0.0247353,-1.77636e-15)">
                <g id="consonant" transform="matrix(6.12323e-17,-1,-1,-6.12323e-17,16,16)">
                    <path d="M7.583,4.1L7.583,8C7.583,8.23 7.77,8.417 8,8.417C8.23,8.417 8.417,8.23 8.417,8L8.417,4.1C8.417,3.87 8.23,3.683 8,3.683C7.77,3.683 7.583,3.87 7.583,4.1Z"/>
                </g>
                <g id="consonant1" serif:id="consonant" transform="matrix(6.12323e-17,-1,-1,-6.12323e-17,12.467,16)">
                    <path d="M7.583,4.5L7.583,8.417C7.583,8.647 7.77,8.833 8,8.833C8.23,8.833 8.417,8.647 8.417,8.417L8.417,4.5C8.417,4.27 8.23,4.083 8,4.083C7.77,4.083 7.583,4.27 7.583,4.5Z"/>
                </g>
            </g>
        </g>
    </g>
</svg>
