<?xml version="1.0" encoding="UTF-8" standalone="no"?>
<!DOCTYPE svg PUBLIC "-//W3C//DTD SVG 1.1//EN" "http://www.w3.org/Graphics/SVG/1.1/DTD/svg11.dtd">
<svg width="100%" height="100%" viewBox="0 0 16 16" version="1.1" xmlns="http://www.w3.org/2000/svg" xmlns:xlink="http://www.w3.org/1999/xlink" xml:space="preserve" xmlns:serif="http://www.serif.com/" style="fill-rule:evenodd;clip-rule:evenodd;stroke-linejoin:round;stroke-miterlimit:2;">
    <g transform="matrix(1,0,0,1,-34,-51)">
        <g id="labial-velar" transform="matrix(1,0,0,1,33.9871,50.9614)">
            <rect x="0" y="0" width="16" height="16" style="fill:none;"/>
            <g id="consonant" transform="matrix(1,0,0,1,-33.9871,-50.9614)">
                <path d="M38.07,55.461C38.07,53.308 39.812,51.558 41.962,51.545L41.987,51.545C44.149,51.545 45.904,53.3 45.904,55.461C45.904,57.482 44.37,59.148 42.404,59.356L42.404,62.067C44.37,62.275 45.904,63.94 45.904,65.961C45.904,66.191 45.717,66.378 45.487,66.378C45.257,66.378 45.07,66.191 45.07,65.961C45.07,64.26 43.689,62.878 41.987,62.878L41.967,62.878C40.275,62.889 38.904,64.266 38.904,65.961C38.904,66.191 38.717,66.378 38.487,66.378C38.257,66.378 38.07,66.191 38.07,65.961C38.07,63.94 39.604,62.275 41.57,62.067L41.57,59.356C39.605,59.148 38.07,57.482 38.07,55.461ZM45.07,55.461C45.07,53.76 43.689,52.378 41.987,52.378C40.285,52.378 38.904,53.76 38.904,55.461C38.904,57.022 40.066,58.313 41.57,58.517L41.57,55.461C41.57,55.231 41.757,55.045 41.987,55.045C42.217,55.045 42.404,55.231 42.404,55.461L42.404,58.517C43.909,58.313 45.07,57.022 45.07,55.461Z"/>
            </g>
        </g>
    </g>
</svg>
