<?xml version="1.0" encoding="UTF-8" standalone="no"?>
<!DOCTYPE svg PUBLIC "-//W3C//DTD SVG 1.1//EN" "http://www.w3.org/Graphics/SVG/1.1/DTD/svg11.dtd">
<svg width="100%" height="100%" viewBox="0 0 16 16" version="1.1" xmlns="http://www.w3.org/2000/svg" xmlns:xlink="http://www.w3.org/1999/xlink" xml:space="preserve" xmlns:serif="http://www.serif.com/" style="fill-rule:evenodd;clip-rule:evenodd;stroke-linejoin:round;stroke-miterlimit:2;">
    <rect id="lateral-alveodental" serif:id="lateral alveodental" x="0" y="0" width="16" height="16" style="fill:none;"/>
    <g id="lateral-alveodental1" serif:id="lateral alveodental">
        <path id="consonant" d="M7.583,7.583L4.5,7.583C4.27,7.583 4.083,7.77 4.083,8C4.083,8.23 4.27,8.417 4.5,8.417L5.586,8.417C4.671,9.134 4.083,10.249 4.083,11.5C4.083,11.73 4.27,11.917 4.5,11.917C4.73,11.917 4.917,11.73 4.917,11.5C4.917,9.939 6.078,8.648 7.583,8.445L7.583,11.5C7.583,11.73 7.77,11.917 8,11.917C8.23,11.917 8.417,11.73 8.417,11.5L8.417,8.445C9.922,8.648 11.083,9.94 11.083,11.5C11.083,11.73 11.27,11.917 11.5,11.917C11.73,11.917 11.917,11.73 11.917,11.5C11.917,10.249 11.329,9.134 10.414,8.417L11.5,8.417C11.73,8.417 11.917,8.23 11.917,8C11.917,7.77 11.73,7.583 11.5,7.583L8.417,7.583L8.417,4.5C8.417,4.27 8.23,4.083 8,4.083C7.77,4.083 7.583,4.27 7.583,4.5L7.583,7.583ZM5.607,1.4L4.5,1.4C4.27,1.4 4.083,1.213 4.083,0.983C4.083,0.753 4.27,0.566 4.5,0.566L11.5,0.566C11.73,0.566 11.917,0.753 11.917,0.983C11.917,1.213 11.73,1.4 11.5,1.4L10.393,1.4C11.319,2.116 11.917,3.239 11.917,4.5C11.917,4.73 11.73,4.917 11.5,4.917C11.27,4.917 11.083,4.73 11.083,4.5C11.083,2.798 9.702,1.417 8,1.417C6.298,1.417 4.917,2.798 4.917,4.5C4.917,4.73 4.73,4.917 4.5,4.917C4.27,4.917 4.083,4.73 4.083,4.5C4.083,3.239 4.68,2.117 5.607,1.4Z"/>
    </g>
</svg>
