<?xml version="1.0" encoding="UTF-8" standalone="no"?>
<!DOCTYPE svg PUBLIC "-//W3C//DTD SVG 1.1//EN" "http://www.w3.org/Graphics/SVG/1.1/DTD/svg11.dtd">
<svg width="100%" height="100%" viewBox="0 0 16 16" version="1.1" xmlns="http://www.w3.org/2000/svg" xmlns:xlink="http://www.w3.org/1999/xlink" xml:space="preserve" xmlns:serif="http://www.serif.com/" style="fill-rule:evenodd;clip-rule:evenodd;stroke-linejoin:round;stroke-miterlimit:2;">
    <g transform="matrix(1,0,0,1,0,-51)">
        <g id="lateral-velar" serif:id="lateral velar" transform="matrix(1,0,0,1,0,51)">
            <rect x="0" y="0" width="16" height="16" style="fill:none;"/>
            <g id="consonant" transform="matrix(1,0,0,1,0,-51)">
                <path d="M7.583,62.105C5.617,62.314 4.083,63.979 4.083,66C4.083,66.23 4.27,66.417 4.5,66.417C4.73,66.417 4.917,66.23 4.917,66C4.917,64.305 6.288,62.927 7.98,62.917L8,62.917C9.702,62.917 11.083,64.298 11.083,66C11.083,66.23 11.27,66.417 11.5,66.417C11.73,66.417 11.917,66.23 11.917,66C11.917,63.979 10.383,62.313 8.417,62.105L8.417,55.5C8.417,55.27 8.23,55.083 8,55.083C7.77,55.083 7.583,55.27 7.583,55.5L7.583,62.105ZM5.607,52.4L4.5,52.4C4.27,52.4 4.083,52.213 4.083,51.983C4.083,51.753 4.27,51.566 4.5,51.566L11.5,51.566C11.73,51.566 11.917,51.753 11.917,51.983C11.917,52.213 11.73,52.4 11.5,52.4L10.393,52.4C11.319,53.116 11.917,54.239 11.917,55.5C11.917,55.73 11.73,55.917 11.5,55.917C11.27,55.917 11.083,55.73 11.083,55.5C11.083,53.798 9.702,52.417 8,52.417C6.298,52.417 4.917,53.798 4.917,55.5C4.917,55.73 4.73,55.917 4.5,55.917C4.27,55.917 4.083,55.73 4.083,55.5C4.083,54.239 4.68,53.117 5.607,52.4Z"/>
            </g>
        </g>
    </g>
</svg>
