<?xml version="1.0" encoding="UTF-8" standalone="no"?>
<!DOCTYPE svg PUBLIC "-//W3C//DTD SVG 1.1//EN" "http://www.w3.org/Graphics/SVG/1.1/DTD/svg11.dtd">
<svg width="100%" height="100%" viewBox="0 0 16 16" version="1.1" xmlns="http://www.w3.org/2000/svg" xmlns:xlink="http://www.w3.org/1999/xlink" xml:space="preserve" xmlns:serif="http://www.serif.com/" style="fill-rule:evenodd;clip-rule:evenodd;stroke-linejoin:round;stroke-miterlimit:2;">
    <g transform="matrix(1,0,0,1,0,-17)">
        <g id="lateral-retroflex" serif:id="lateral retroflex" transform="matrix(1,0,0,1,0,17)">
            <rect x="0" y="0" width="16" height="16" style="fill:none;"/>
            <g id="consonant" transform="matrix(1,0,0,1,0,-17)">
                <path d="M7.583,28.055C6.078,27.852 4.917,26.56 4.917,25C4.917,24.77 4.73,24.583 4.5,24.583C4.27,24.583 4.083,24.77 4.083,25C4.083,27.153 5.825,28.903 7.975,28.917L8,28.917C10.162,28.917 11.917,27.162 11.917,25C11.917,24.77 11.73,24.583 11.5,24.583C11.27,24.583 11.083,24.77 11.083,25C11.083,26.561 9.922,27.852 8.417,28.055L8.417,21.5C8.417,21.27 8.23,21.083 8,21.083C7.77,21.083 7.583,21.27 7.583,21.5L7.583,28.055ZM5.607,18.4L4.5,18.4C4.27,18.4 4.083,18.213 4.083,17.983C4.083,17.753 4.27,17.566 4.5,17.566L11.5,17.566C11.73,17.566 11.917,17.753 11.917,17.983C11.917,18.213 11.73,18.4 11.5,18.4L10.393,18.4C11.319,19.116 11.917,20.239 11.917,21.5C11.917,21.73 11.73,21.917 11.5,21.917C11.27,21.917 11.083,21.73 11.083,21.5C11.083,19.798 9.702,18.417 8,18.417C6.298,18.417 4.917,19.798 4.917,21.5C4.917,21.73 4.73,21.917 4.5,21.917C4.27,21.917 4.083,21.73 4.083,21.5C4.083,20.239 4.68,19.117 5.607,18.4Z"/>
            </g>
        </g>
    </g>
</svg>
