<?xml version="1.0" encoding="UTF-8" standalone="no"?>
<!DOCTYPE svg PUBLIC "-//W3C//DTD SVG 1.1//EN" "http://www.w3.org/Graphics/SVG/1.1/DTD/svg11.dtd">
<svg width="100%" height="100%" viewBox="0 0 16 16" version="1.1" xmlns="http://www.w3.org/2000/svg" xmlns:xlink="http://www.w3.org/1999/xlink" xml:space="preserve" xmlns:serif="http://www.serif.com/" style="fill-rule:evenodd;clip-rule:evenodd;stroke-linejoin:round;stroke-miterlimit:2;">
    <g transform="matrix(1,0,0,1,-52,-51)">
        <g id="mid-central" serif:id="mid central" transform="matrix(1,0,0,1,52,51)">
            <rect x="0" y="0" width="16" height="16" style="fill:none;"/>
            <g id="vowel" transform="matrix(1,0,0,1,-52,-51)">
                <path d="M60,63.417C60.46,63.417 60.833,63.79 60.833,64.25C60.833,64.71 60.46,65.083 60,65.083C59.54,65.083 59.167,64.71 59.167,64.25C59.167,63.79 59.54,63.417 60,63.417ZM59.583,55.105C57.625,55.313 56.096,56.965 56.083,58.975L56.083,59C56.083,61.153 57.825,62.903 59.975,62.917L60,62.917C62.162,62.917 63.917,61.162 63.917,59L63.917,58.975C63.904,56.965 62.375,55.313 60.417,55.105L60.417,51.983C60.417,51.753 60.23,51.566 60,51.566C59.77,51.566 59.583,51.753 59.583,51.983L59.583,55.105ZM63.083,59C63.083,57.298 61.702,55.917 60,55.917L59.98,55.917C58.294,55.927 56.927,57.294 56.917,58.98L56.917,59C56.917,60.702 58.298,62.083 60,62.083L60.02,62.083C61.712,62.073 63.083,60.695 63.083,59Z"/>
            </g>
        </g>
    </g>
</svg>
