<?xml version="1.0" encoding="UTF-8" standalone="no"?>
<!DOCTYPE svg PUBLIC "-//W3C//DTD SVG 1.1//EN" "http://www.w3.org/Graphics/SVG/1.1/DTD/svg11.dtd">
<svg width="100%" height="100%" viewBox="0 0 16 16" version="1.1" xmlns="http://www.w3.org/2000/svg" xmlns:xlink="http://www.w3.org/1999/xlink" xml:space="preserve" xmlns:serif="http://www.serif.com/" style="fill-rule:evenodd;clip-rule:evenodd;stroke-linejoin:round;stroke-miterlimit:2;">
    <g transform="matrix(1,0,0,1,-70,-51)">
        <g id="mid-back-alt" serif:id="mid back alt" transform="matrix(1,0,0,1,70,51)">
            <rect x="0" y="0" width="16" height="16" style="fill:none;"/>
            <g id="vowel" transform="matrix(1,0,0,1,-70,-51)">
                <path d="M78,63.417C78.46,63.417 78.833,63.79 78.833,64.25C78.833,64.71 78.46,65.083 78,65.083C77.54,65.083 77.167,64.71 77.167,64.25C77.167,63.79 77.54,63.417 78,63.417ZM76.241,55.5C74.969,56.141 74.093,57.456 74.083,58.975L74.083,59C74.083,61.153 75.825,62.903 77.975,62.917L78,62.917C80.162,62.917 81.917,61.162 81.917,59L81.917,58.975C81.907,57.456 81.031,56.141 79.759,55.5C81.038,54.855 81.917,53.529 81.917,52C81.917,51.77 81.73,51.583 81.5,51.583C81.27,51.583 81.083,51.77 81.083,52C81.083,53.702 79.702,55.083 78,55.083C76.298,55.083 74.917,53.702 74.917,52C74.917,51.77 74.73,51.583 74.5,51.583C74.27,51.583 74.083,51.77 74.083,52C74.083,53.529 74.962,54.855 76.241,55.5ZM81.083,59C81.083,57.298 79.702,55.917 78,55.917L77.98,55.917C76.294,55.927 74.927,57.294 74.917,58.98L74.917,59C74.917,60.702 76.298,62.083 78,62.083L78.02,62.083C79.712,62.073 81.083,60.695 81.083,59ZM78,58.167C78.46,58.167 78.833,58.54 78.833,59C78.833,59.46 78.46,59.833 78,59.833C77.54,59.833 77.167,59.46 77.167,59C77.167,58.54 77.54,58.167 78,58.167Z"/>
            </g>
        </g>
    </g>
</svg>
