<?xml version="1.0" encoding="UTF-8" standalone="no"?>
<!DOCTYPE svg PUBLIC "-//W3C//DTD SVG 1.1//EN" "http://www.w3.org/Graphics/SVG/1.1/DTD/svg11.dtd">
<svg width="100%" height="100%" viewBox="0 0 16 16" version="1.1" xmlns="http://www.w3.org/2000/svg" xmlns:xlink="http://www.w3.org/1999/xlink" xml:space="preserve" xmlns:serif="http://www.serif.com/" style="fill-rule:evenodd;clip-rule:evenodd;stroke-linejoin:round;stroke-miterlimit:2;">
    <g transform="matrix(1,0,0,1,0,-51)">
        <g id="mid-front-alt" serif:id="mid front alt" transform="matrix(1,0,0,1,0,51)">
            <rect x="0" y="0" width="16" height="16" style="fill:none;"/>
            <g id="vowel" transform="matrix(1,0,0,1,0,-51)">
                <path d="M8,63.417C8.46,63.417 8.833,63.79 8.833,64.25C8.833,64.71 8.46,65.083 8,65.083C7.54,65.083 7.167,64.71 7.167,64.25C7.167,63.79 7.54,63.417 8,63.417ZM7.559,55.108C5.613,55.327 4.096,56.974 4.083,58.975L4.083,59C4.083,61.153 5.825,62.903 7.975,62.917L8,62.917C10.162,62.917 11.917,61.162 11.917,59L11.917,58.975C11.904,56.973 10.386,55.325 8.439,55.108C8.625,53.583 9.925,52.4 11.5,52.4C11.73,52.4 11.917,52.213 11.917,51.983C11.917,51.753 11.73,51.566 11.5,51.566C9.967,51.566 8.639,52.449 7.996,53.733C7.35,52.458 6.026,51.583 4.5,51.583C4.27,51.583 4.083,51.77 4.083,52C4.083,52.23 4.27,52.417 4.5,52.417C6.069,52.417 7.366,53.591 7.559,55.108ZM11.083,59C11.083,57.298 9.702,55.917 8,55.917L7.98,55.917C6.294,55.927 4.927,57.294 4.917,58.98L4.917,59C4.917,60.702 6.298,62.083 8,62.083L8.02,62.083C9.712,62.073 11.083,60.695 11.083,59ZM8,58.167C8.46,58.167 8.833,58.54 8.833,59C8.833,59.46 8.46,59.833 8,59.833C7.54,59.833 7.167,59.46 7.167,59C7.167,58.54 7.54,58.167 8,58.167Z"/>
            </g>
        </g>
    </g>
</svg>
