<?xml version="1.0" encoding="UTF-8" standalone="no"?>
<!DOCTYPE svg PUBLIC "-//W3C//DTD SVG 1.1//EN" "http://www.w3.org/Graphics/SVG/1.1/DTD/svg11.dtd">
<svg width="100%" height="100%" viewBox="0 0 16 16" version="1.1" xmlns="http://www.w3.org/2000/svg" xmlns:xlink="http://www.w3.org/1999/xlink" xml:space="preserve" xmlns:serif="http://www.serif.com/" style="fill-rule:evenodd;clip-rule:evenodd;stroke-linejoin:round;stroke-miterlimit:2;">
    <g transform="matrix(1,0,0,1,-17,-68)">
        <g id="mid-close-front" serif:id="mid-close front" transform="matrix(1,0,0,1,17,68)">
            <rect x="0" y="0" width="16" height="16" style="fill:none;"/>
            <g id="vowel" transform="matrix(1,0,0,1,-17,-68)">
                <path d="M24.559,72.108C22.613,72.327 21.096,73.974 21.083,75.975L21.083,76C21.083,77.529 21.962,78.855 23.241,79.5C21.962,80.145 21.083,81.471 21.083,83C21.083,83.23 21.27,83.417 21.5,83.417C21.73,83.417 21.917,83.23 21.917,83C21.917,81.305 23.288,79.927 24.98,79.917L25,79.917C26.702,79.917 28.083,81.298 28.083,83C28.083,83.23 28.27,83.417 28.5,83.417C28.73,83.417 28.917,83.23 28.917,83C28.917,81.471 28.038,80.145 26.759,79.5C28.038,78.855 28.917,77.529 28.917,76L28.917,75.975C28.904,73.973 27.386,72.325 25.439,72.108C25.625,70.583 26.925,69.4 28.5,69.4C28.73,69.4 28.917,69.213 28.917,68.983C28.917,68.753 28.73,68.566 28.5,68.566C26.967,68.566 25.639,69.449 24.996,70.733C24.35,69.458 23.026,68.583 21.5,68.583C21.27,68.583 21.083,68.77 21.083,69C21.083,69.23 21.27,69.417 21.5,69.417C23.069,69.417 24.366,70.591 24.559,72.108ZM28.083,76C28.083,74.298 26.702,72.917 25,72.917L24.98,72.917C23.294,72.927 21.927,74.294 21.917,75.98L21.917,76C21.917,77.702 23.298,79.083 25,79.083L25.02,79.083C26.712,79.073 28.083,77.695 28.083,76Z"/>
            </g>
        </g>
    </g>
</svg>
