<?xml version="1.0" encoding="UTF-8" standalone="no"?>
<!DOCTYPE svg PUBLIC "-//W3C//DTD SVG 1.1//EN" "http://www.w3.org/Graphics/SVG/1.1/DTD/svg11.dtd">
<svg width="100%" height="100%" viewBox="0 0 16 16" version="1.1" xmlns="http://www.w3.org/2000/svg" xmlns:xlink="http://www.w3.org/1999/xlink" xml:space="preserve" xmlns:serif="http://www.serif.com/" style="fill-rule:evenodd;clip-rule:evenodd;stroke-linejoin:round;stroke-miterlimit:2;">
    <g transform="matrix(1,0,0,1,-35,-68)">
        <g id="mid-close-central-alt" serif:id="mid-close central alt" transform="matrix(1,0,0,1,35,68)">
            <rect x="0" y="0" width="16" height="16" style="fill:none;"/>
            <g id="vowel" transform="matrix(1,0,0,1,-35,-68)">
                <path d="M42.583,72.105C40.625,72.313 39.096,73.965 39.083,75.975L39.083,76C39.083,77.529 39.962,78.855 41.241,79.5C39.962,80.145 39.083,81.471 39.083,83C39.083,83.23 39.27,83.417 39.5,83.417C39.73,83.417 39.917,83.23 39.917,83C39.917,81.305 41.288,79.927 42.98,79.917L43,79.917C44.702,79.917 46.083,81.298 46.083,83C46.083,83.23 46.27,83.417 46.5,83.417C46.73,83.417 46.917,83.23 46.917,83C46.917,81.471 46.038,80.145 44.759,79.5C46.038,78.855 46.917,77.529 46.917,76L46.917,75.975C46.904,73.965 45.375,72.313 43.417,72.105L43.417,68.983C43.417,68.753 43.23,68.566 43,68.566C42.77,68.566 42.583,68.753 42.583,68.983L42.583,72.105ZM46.083,76C46.083,74.298 44.702,72.917 43,72.917L42.98,72.917C41.294,72.927 39.927,74.294 39.917,75.98L39.917,76C39.917,77.702 41.298,79.083 43,79.083L43.02,79.083C44.712,79.073 46.083,77.695 46.083,76ZM43,75.167C43.46,75.167 43.833,75.54 43.833,76C43.833,76.46 43.46,76.833 43,76.833C42.54,76.833 42.167,76.46 42.167,76C42.167,75.54 42.54,75.167 43,75.167Z"/>
            </g>
        </g>
    </g>
</svg>
