<?xml version="1.0" encoding="UTF-8" standalone="no"?>
<!DOCTYPE svg PUBLIC "-//W3C//DTD SVG 1.1//EN" "http://www.w3.org/Graphics/SVG/1.1/DTD/svg11.dtd">
<svg width="100%" height="100%" viewBox="0 0 16 16" version="1.1" xmlns="http://www.w3.org/2000/svg" xmlns:xlink="http://www.w3.org/1999/xlink" xml:space="preserve" xmlns:serif="http://www.serif.com/" style="fill-rule:evenodd;clip-rule:evenodd;stroke-linejoin:round;stroke-miterlimit:2;">
    <g transform="matrix(1,0,0,1,0,-34)">
        <g id="mid-open-front-alt" serif:id="mid-open front alt" transform="matrix(1,0,0,1,0,34)">
            <rect x="0" y="0" width="16" height="16" style="fill:none;"/>
            <g id="vowel" transform="matrix(1,0,0,1,0,-34)">
                <path d="M7.975,49.417L8,49.417C10.162,49.417 11.917,47.662 11.917,45.5C11.917,45.27 11.73,45.083 11.5,45.083C11.27,45.083 11.083,45.27 11.083,45.5C11.083,47.195 9.712,48.573 8.02,48.583L8,48.583C6.298,48.583 4.917,47.202 4.917,45.5C4.917,45.27 4.73,45.083 4.5,45.083C4.27,45.083 4.083,45.27 4.083,45.5C4.083,47.653 5.825,49.403 7.975,49.417ZM7.559,38.108C5.613,38.327 4.096,39.974 4.083,41.975L4.083,42C4.083,44.153 5.825,45.903 7.975,45.917L8,45.917C10.162,45.917 11.917,44.162 11.917,42L11.917,41.975C11.904,39.973 10.386,38.325 8.439,38.108C8.625,36.583 9.925,35.4 11.5,35.4C11.73,35.4 11.917,35.213 11.917,34.983C11.917,34.753 11.73,34.566 11.5,34.566C9.967,34.566 8.639,35.449 7.996,36.733C7.35,35.458 6.026,34.583 4.5,34.583C4.27,34.583 4.083,34.77 4.083,35C4.083,35.23 4.27,35.417 4.5,35.417C6.069,35.417 7.366,36.591 7.559,38.108ZM11.083,42C11.083,40.298 9.702,38.917 8,38.917L7.98,38.917C6.294,38.927 4.927,40.294 4.917,41.98L4.917,42C4.917,43.702 6.298,45.083 8,45.083L8.02,45.083C9.712,45.073 11.083,43.695 11.083,42ZM8,41.167C8.46,41.167 8.833,41.54 8.833,42C8.833,42.46 8.46,42.833 8,42.833C7.54,42.833 7.167,42.46 7.167,42C7.167,41.54 7.54,41.167 8,41.167Z"/>
            </g>
        </g>
    </g>
</svg>
