<?xml version="1.0" encoding="UTF-8" standalone="no"?>
<!DOCTYPE svg PUBLIC "-//W3C//DTD SVG 1.1//EN" "http://www.w3.org/Graphics/SVG/1.1/DTD/svg11.dtd">
<svg width="100%" height="100%" viewBox="0 0 16 16" version="1.1" xmlns="http://www.w3.org/2000/svg" xmlns:xlink="http://www.w3.org/1999/xlink" xml:space="preserve" xmlns:serif="http://www.serif.com/" style="fill-rule:evenodd;clip-rule:evenodd;stroke-linejoin:round;stroke-miterlimit:2;">
    <g transform="matrix(1,0,0,1,-52,-34)">
        <g id="mid-open-central-alt" serif:id="mid-open central alt" transform="matrix(1,0,0,1,52,34)">
            <rect x="0" y="0" width="16" height="16" style="fill:none;"/>
            <g id="vowel" transform="matrix(1,0,0,1,-52,-34)">
                <path d="M59.975,49.417L60,49.417C62.162,49.417 63.917,47.662 63.917,45.5C63.917,45.27 63.73,45.083 63.5,45.083C63.27,45.083 63.083,45.27 63.083,45.5C63.083,47.195 61.712,48.573 60.02,48.583L60,48.583C58.298,48.583 56.917,47.202 56.917,45.5C56.917,45.27 56.73,45.083 56.5,45.083C56.27,45.083 56.083,45.27 56.083,45.5C56.083,47.653 57.825,49.403 59.975,49.417ZM59.583,38.105C57.625,38.313 56.096,39.965 56.083,41.975L56.083,42C56.083,44.153 57.825,45.903 59.975,45.917L60,45.917C62.162,45.917 63.917,44.162 63.917,42L63.917,41.975C63.904,39.965 62.375,38.313 60.417,38.105L60.417,34.983C60.417,34.753 60.23,34.566 60,34.566C59.77,34.566 59.583,34.753 59.583,34.983L59.583,38.105ZM63.083,42C63.083,40.298 61.702,38.917 60,38.917L59.98,38.917C58.294,38.927 56.927,40.294 56.917,41.98L56.917,42C56.917,43.702 58.298,45.083 60,45.083L60.02,45.083C61.712,45.073 63.083,43.695 63.083,42Z"/>
            </g>
        </g>
    </g>
</svg>
