<?xml version="1.0" encoding="UTF-8" standalone="no"?>
<!DOCTYPE svg PUBLIC "-//W3C//DTD SVG 1.1//EN" "http://www.w3.org/Graphics/SVG/1.1/DTD/svg11.dtd">
<svg width="100%" height="100%" viewBox="0 0 16 16" version="1.1" xmlns="http://www.w3.org/2000/svg" xmlns:xlink="http://www.w3.org/1999/xlink" xml:space="preserve" xmlns:serif="http://www.serif.com/" style="fill-rule:evenodd;clip-rule:evenodd;stroke-linejoin:round;stroke-miterlimit:2;">
    <g transform="matrix(1,0,0,1,-70,-34)">
        <g id="mid-open-back-alt" serif:id="mid-open back alt" transform="matrix(1,0,0,1,70,34)">
            <rect x="0" y="0" width="16" height="16" style="fill:none;"/>
            <g id="vowel" transform="matrix(1,0,0,1,-70,-34)">
                <path d="M77.975,49.417L78,49.417C80.162,49.417 81.917,47.662 81.917,45.5C81.917,45.27 81.73,45.083 81.5,45.083C81.27,45.083 81.083,45.27 81.083,45.5C81.083,47.195 79.712,48.573 78.02,48.583L78,48.583C76.298,48.583 74.917,47.202 74.917,45.5C74.917,45.27 74.73,45.083 74.5,45.083C74.27,45.083 74.083,45.27 74.083,45.5C74.083,47.653 75.825,49.403 77.975,49.417ZM76.241,38.5C74.969,39.141 74.093,40.456 74.083,41.975L74.083,42C74.083,44.153 75.825,45.903 77.975,45.917L78,45.917C80.162,45.917 81.917,44.162 81.917,42L81.917,41.975C81.907,40.456 81.031,39.141 79.759,38.5C81.038,37.855 81.917,36.529 81.917,35C81.917,34.77 81.73,34.583 81.5,34.583C81.27,34.583 81.083,34.77 81.083,35C81.083,36.702 79.702,38.083 78,38.083C76.298,38.083 74.917,36.702 74.917,35C74.917,34.77 74.73,34.583 74.5,34.583C74.27,34.583 74.083,34.77 74.083,35C74.083,36.529 74.962,37.855 76.241,38.5ZM81.083,42C81.083,40.298 79.702,38.917 78,38.917L77.98,38.917C76.294,38.927 74.927,40.294 74.917,41.98L74.917,42C74.917,43.702 76.298,45.083 78,45.083L78.02,45.083C79.712,45.073 81.083,43.695 81.083,42ZM78,41.167C78.46,41.167 78.833,41.54 78.833,42C78.833,42.46 78.46,42.833 78,42.833C77.54,42.833 77.167,42.46 77.167,42C77.167,41.54 77.54,41.167 78,41.167Z"/>
            </g>
        </g>
    </g>
</svg>
