<?xml version="1.0" encoding="UTF-8" standalone="no"?>
<!DOCTYPE svg PUBLIC "-//W3C//DTD SVG 1.1//EN" "http://www.w3.org/Graphics/SVG/1.1/DTD/svg11.dtd">
<svg width="100%" height="100%" viewBox="0 0 16 16" version="1.1" xmlns="http://www.w3.org/2000/svg" xmlns:xlink="http://www.w3.org/1999/xlink" xml:space="preserve" xmlns:serif="http://www.serif.com/" style="fill-rule:evenodd;clip-rule:evenodd;stroke-linejoin:round;stroke-miterlimit:2;">
    <g transform="matrix(1,0,0,1,-87,-68)">
        <g id="mid-close-back" serif:id="mid-close back" transform="matrix(1,0,0,1,87,68)">
            <rect x="0" y="0" width="16" height="16" style="fill:none;"/>
            <g id="vowel" transform="matrix(1,0,0,1,-87,-68)">
                <path d="M93.241,72.5C91.969,73.141 91.093,74.456 91.083,75.975L91.083,76C91.083,77.529 91.962,78.855 93.241,79.5C91.962,80.145 91.083,81.471 91.083,83C91.083,83.23 91.27,83.417 91.5,83.417C91.73,83.417 91.917,83.23 91.917,83C91.917,81.305 93.288,79.927 94.98,79.917L95,79.917C96.702,79.917 98.083,81.298 98.083,83C98.083,83.23 98.27,83.417 98.5,83.417C98.73,83.417 98.917,83.23 98.917,83C98.917,81.471 98.038,80.145 96.759,79.5C98.038,78.855 98.917,77.529 98.917,76L98.917,75.975C98.907,74.456 98.031,73.141 96.759,72.5C98.038,71.855 98.917,70.529 98.917,69C98.917,68.77 98.73,68.583 98.5,68.583C98.27,68.583 98.083,68.77 98.083,69C98.083,70.702 96.702,72.083 95,72.083C93.298,72.083 91.917,70.702 91.917,69C91.917,68.77 91.73,68.583 91.5,68.583C91.27,68.583 91.083,68.77 91.083,69C91.083,70.529 91.962,71.855 93.241,72.5ZM98.083,76C98.083,74.298 96.702,72.917 95,72.917L94.98,72.917C93.294,72.927 91.927,74.294 91.917,75.98L91.917,76C91.917,77.702 93.298,79.083 95,79.083L95.02,79.083C96.712,79.073 98.083,77.695 98.083,76Z"/>
            </g>
        </g>
    </g>
</svg>
