<?xml version="1.0" encoding="UTF-8" standalone="no"?>
<!DOCTYPE svg PUBLIC "-//W3C//DTD SVG 1.1//EN" "http://www.w3.org/Graphics/SVG/1.1/DTD/svg11.dtd">
<svg width="100%" height="100%" viewBox="0 0 16 16" version="1.1" xmlns="http://www.w3.org/2000/svg" xmlns:xlink="http://www.w3.org/1999/xlink" xml:space="preserve" xmlns:serif="http://www.serif.com/" style="fill-rule:evenodd;clip-rule:evenodd;stroke-linejoin:round;stroke-miterlimit:2;">
    <g transform="matrix(1,0,0,1,0,-68)">
        <g id="mid-close-front-alt" serif:id="mid-close front alt" transform="matrix(1,0,0,1,0,68)">
            <rect x="0" y="0" width="16" height="16" style="fill:none;"/>
            <g id="vowel" transform="matrix(1,0,0,1,0,-68)">
                <path d="M7.559,72.108C5.613,72.327 4.096,73.974 4.083,75.975L4.083,76C4.083,77.529 4.962,78.855 6.241,79.5C4.962,80.145 4.083,81.471 4.083,83C4.083,83.23 4.27,83.417 4.5,83.417C4.73,83.417 4.917,83.23 4.917,83C4.917,81.305 6.288,79.927 7.98,79.917L8,79.917C9.702,79.917 11.083,81.298 11.083,83C11.083,83.23 11.27,83.417 11.5,83.417C11.73,83.417 11.917,83.23 11.917,83C11.917,81.471 11.038,80.145 9.759,79.5C11.038,78.855 11.917,77.529 11.917,76L11.917,75.975C11.904,73.973 10.386,72.325 8.439,72.108C8.625,70.583 9.925,69.4 11.5,69.4C11.73,69.4 11.917,69.213 11.917,68.983C11.917,68.753 11.73,68.566 11.5,68.566C9.967,68.566 8.639,69.449 7.996,70.733C7.35,69.458 6.026,68.583 4.5,68.583C4.27,68.583 4.083,68.77 4.083,69C4.083,69.23 4.27,69.417 4.5,69.417C6.069,69.417 7.366,70.591 7.559,72.108ZM11.083,76C11.083,74.298 9.702,72.917 8,72.917L7.98,72.917C6.294,72.927 4.927,74.294 4.917,75.98L4.917,76C4.917,77.702 6.298,79.083 8,79.083L8.02,79.083C9.712,79.073 11.083,77.695 11.083,76ZM8,75.167C8.46,75.167 8.833,75.54 8.833,76C8.833,76.46 8.46,76.833 8,76.833C7.54,76.833 7.167,76.46 7.167,76C7.167,75.54 7.54,75.167 8,75.167Z"/>
            </g>
        </g>
    </g>
</svg>
