<?xml version="1.0" encoding="UTF-8" standalone="no"?>
<!DOCTYPE svg PUBLIC "-//W3C//DTD SVG 1.1//EN" "http://www.w3.org/Graphics/SVG/1.1/DTD/svg11.dtd">
<svg width="100%" height="100%" viewBox="0 0 16 16" version="1.1" xmlns="http://www.w3.org/2000/svg" xmlns:xlink="http://www.w3.org/1999/xlink" xml:space="preserve" xmlns:serif="http://www.serif.com/" style="fill-rule:evenodd;clip-rule:evenodd;stroke-linejoin:round;stroke-miterlimit:2;">
    <g transform="matrix(1,0,0,1,-17,-34)">
        <g id="mid-open-front" serif:id="mid-open front" transform="matrix(1,0,0,1,17,34)">
            <rect x="0" y="0" width="16" height="16" style="fill:none;"/>
            <g id="vowel" transform="matrix(1,0,0,1,-17,-34)">
                <path d="M24.975,49.417L25,49.417C27.162,49.417 28.917,47.662 28.917,45.5C28.917,45.27 28.73,45.083 28.5,45.083C28.27,45.083 28.083,45.27 28.083,45.5C28.083,47.195 26.712,48.573 25.02,48.583L25,48.583C23.298,48.583 21.917,47.202 21.917,45.5C21.917,45.27 21.73,45.083 21.5,45.083C21.27,45.083 21.083,45.27 21.083,45.5C21.083,47.653 22.825,49.403 24.975,49.417ZM24.559,38.108C22.613,38.327 21.096,39.974 21.083,41.975L21.083,42C21.083,44.153 22.825,45.903 24.975,45.917L25,45.917C27.162,45.917 28.917,44.162 28.917,42L28.917,41.975C28.904,39.973 27.386,38.325 25.439,38.108C25.625,36.583 26.925,35.4 28.5,35.4C28.73,35.4 28.917,35.213 28.917,34.983C28.917,34.753 28.73,34.566 28.5,34.566C26.967,34.566 25.639,35.449 24.996,36.733C24.35,35.458 23.026,34.583 21.5,34.583C21.27,34.583 21.083,34.77 21.083,35C21.083,35.23 21.27,35.417 21.5,35.417C23.069,35.417 24.366,36.591 24.559,38.108ZM28.083,42C28.083,40.298 26.702,38.917 25,38.917L24.98,38.917C23.294,38.927 21.927,40.294 21.917,41.98L21.917,42C21.917,43.702 23.298,45.083 25,45.083L25.02,45.083C26.712,45.073 28.083,43.695 28.083,42Z"/>
            </g>
        </g>
    </g>
</svg>
