<?xml version="1.0" encoding="UTF-8" standalone="no"?>
<!DOCTYPE svg PUBLIC "-//W3C//DTD SVG 1.1//EN" "http://www.w3.org/Graphics/SVG/1.1/DTD/svg11.dtd">
<svg width="100%" height="100%" viewBox="0 0 16 16" version="1.1" xmlns="http://www.w3.org/2000/svg" xmlns:xlink="http://www.w3.org/1999/xlink" xml:space="preserve" xmlns:serif="http://www.serif.com/" style="fill-rule:evenodd;clip-rule:evenodd;stroke-linejoin:round;stroke-miterlimit:2;">
    <g transform="matrix(1,0,0,1,-87,-34)">
        <g id="mid-open-back" serif:id="mid-open back" transform="matrix(1,0,0,1,87,34)">
            <rect x="0" y="0" width="16" height="16" style="fill:none;"/>
            <g id="vowel" transform="matrix(1,0,0,1,-87,-34)">
                <path d="M94.975,49.417L95,49.417C97.162,49.417 98.917,47.662 98.917,45.5C98.917,45.27 98.73,45.083 98.5,45.083C98.27,45.083 98.083,45.27 98.083,45.5C98.083,47.195 96.712,48.573 95.02,48.583L95,48.583C93.298,48.583 91.917,47.202 91.917,45.5C91.917,45.27 91.73,45.083 91.5,45.083C91.27,45.083 91.083,45.27 91.083,45.5C91.083,47.653 92.825,49.403 94.975,49.417ZM93.241,38.5C91.969,39.141 91.093,40.456 91.083,41.975L91.083,42C91.083,44.153 92.825,45.903 94.975,45.917L95,45.917C97.162,45.917 98.917,44.162 98.917,42L98.917,41.975C98.907,40.456 98.031,39.141 96.759,38.5C98.038,37.855 98.917,36.529 98.917,35C98.917,34.77 98.73,34.583 98.5,34.583C98.27,34.583 98.083,34.77 98.083,35C98.083,36.702 96.702,38.083 95,38.083C93.298,38.083 91.917,36.702 91.917,35C91.917,34.77 91.73,34.583 91.5,34.583C91.27,34.583 91.083,34.77 91.083,35C91.083,36.529 91.962,37.855 93.241,38.5ZM98.083,42C98.083,40.298 96.702,38.917 95,38.917L94.98,38.917C93.294,38.927 91.927,40.294 91.917,41.98L91.917,42C91.917,43.702 93.298,45.083 95,45.083L95.02,45.083C96.712,45.073 98.083,43.695 98.083,42Z"/>
            </g>
        </g>
    </g>
</svg>
