<?xml version="1.0" encoding="UTF-8" standalone="no"?>
<!DOCTYPE svg PUBLIC "-//W3C//DTD SVG 1.1//EN" "http://www.w3.org/Graphics/SVG/1.1/DTD/svg11.dtd">
<svg width="100%" height="100%" viewBox="0 0 16 16" version="1.1" xmlns="http://www.w3.org/2000/svg" xmlns:xlink="http://www.w3.org/1999/xlink" xml:space="preserve" xmlns:serif="http://www.serif.com/" style="fill-rule:evenodd;clip-rule:evenodd;stroke-linejoin:round;stroke-miterlimit:2;">
    <g transform="matrix(1,0,0,1,-52,-68)">
        <g id="mid-close-central" serif:id="mid-close central" transform="matrix(1,0,0,1,52,68)">
            <rect x="0" y="0" width="16" height="16" style="fill:none;"/>
            <g id="vowel" transform="matrix(1,0,0,1,-52,-68)">
                <path d="M59.583,72.105C57.625,72.313 56.096,73.965 56.083,75.975L56.083,76C56.083,77.529 56.962,78.855 58.241,79.5C56.962,80.145 56.083,81.471 56.083,83C56.083,83.23 56.27,83.417 56.5,83.417C56.73,83.417 56.917,83.23 56.917,83C56.917,81.305 58.288,79.927 59.98,79.917L60,79.917C61.702,79.917 63.083,81.298 63.083,83C63.083,83.23 63.27,83.417 63.5,83.417C63.73,83.417 63.917,83.23 63.917,83C63.917,81.471 63.038,80.145 61.759,79.5C63.038,78.855 63.917,77.529 63.917,76L63.917,75.975C63.904,73.965 62.375,72.313 60.417,72.105L60.417,68.983C60.417,68.753 60.23,68.566 60,68.566C59.77,68.566 59.583,68.753 59.583,68.983L59.583,72.105ZM63.083,76C63.083,74.298 61.702,72.917 60,72.917L59.98,72.917C58.294,72.927 56.927,74.294 56.917,75.98L56.917,76C56.917,77.702 58.298,79.083 60,79.083L60.02,79.083C61.712,79.073 63.083,77.695 63.083,76Z"/>
            </g>
        </g>
    </g>
</svg>
