<?xml version="1.0" encoding="UTF-8" standalone="no"?>
<!DOCTYPE svg PUBLIC "-//W3C//DTD SVG 1.1//EN" "http://www.w3.org/Graphics/SVG/1.1/DTD/svg11.dtd">
<svg width="100%" height="100%" viewBox="0 0 16 16" version="1.1" xmlns="http://www.w3.org/2000/svg" xmlns:xlink="http://www.w3.org/1999/xlink" xml:space="preserve" xmlns:serif="http://www.serif.com/" style="fill-rule:evenodd;clip-rule:evenodd;stroke-linejoin:round;stroke-miterlimit:2;">
    <g transform="matrix(1,0,0,1,-70,-68)">
        <g id="mid-close-back-alt" serif:id="mid-close back alt" transform="matrix(1,0,0,1,70,68)">
            <rect x="0" y="0" width="16" height="16" style="fill:none;"/>
            <g id="vowel" transform="matrix(1,0,0,1,-70,-68)">
                <path d="M76.241,72.5C74.969,73.141 74.093,74.456 74.083,75.975L74.083,76C74.083,77.529 74.962,78.855 76.241,79.5C74.962,80.145 74.083,81.471 74.083,83C74.083,83.23 74.27,83.417 74.5,83.417C74.73,83.417 74.917,83.23 74.917,83C74.917,81.305 76.288,79.927 77.98,79.917L78,79.917C79.702,79.917 81.083,81.298 81.083,83C81.083,83.23 81.27,83.417 81.5,83.417C81.73,83.417 81.917,83.23 81.917,83C81.917,81.471 81.038,80.145 79.759,79.5C81.038,78.855 81.917,77.529 81.917,76L81.917,75.975C81.907,74.456 81.031,73.141 79.759,72.5C81.038,71.855 81.917,70.529 81.917,69C81.917,68.77 81.73,68.583 81.5,68.583C81.27,68.583 81.083,68.77 81.083,69C81.083,70.702 79.702,72.083 78,72.083C76.298,72.083 74.917,70.702 74.917,69C74.917,68.77 74.73,68.583 74.5,68.583C74.27,68.583 74.083,68.77 74.083,69C74.083,70.529 74.962,71.855 76.241,72.5ZM81.083,76C81.083,74.298 79.702,72.917 78,72.917L77.98,72.917C76.294,72.927 74.927,74.294 74.917,75.98L74.917,76C74.917,77.702 76.298,79.083 78,79.083L78.02,79.083C79.712,79.073 81.083,77.695 81.083,76ZM78,75.167C78.46,75.167 78.833,75.54 78.833,76C78.833,76.46 78.46,76.833 78,76.833C77.54,76.833 77.167,76.46 77.167,76C77.167,75.54 77.54,75.167 78,75.167Z"/>
            </g>
        </g>
    </g>
</svg>
