<?xml version="1.0" encoding="UTF-8" standalone="no"?>
<!DOCTYPE svg PUBLIC "-//W3C//DTD SVG 1.1//EN" "http://www.w3.org/Graphics/SVG/1.1/DTD/svg11.dtd">
<svg width="100%" height="100%" viewBox="0 0 16 16" version="1.1" xmlns="http://www.w3.org/2000/svg" xmlns:xlink="http://www.w3.org/1999/xlink" xml:space="preserve" xmlns:serif="http://www.serif.com/" style="fill-rule:evenodd;clip-rule:evenodd;stroke-linejoin:round;stroke-miterlimit:2;">
    <g transform="matrix(1,0,0,1,-17,-85)">
        <g id="near-close-front" serif:id="near-close front" transform="matrix(1,0,0,1,17,85)">
            <rect x="0" y="0" width="16" height="16" style="fill:none;"/>
            <g id="vowel" transform="matrix(1,0,0,1,-17,-85)">
                <path d="M21.484,100.416L21.5,100.417L28.5,100.417C28.695,100.417 28.859,100.283 28.904,100.102L28.911,100.068L28.915,100.037L28.917,100.003L28.917,100C28.917,98.471 28.038,97.145 26.759,96.5C28.038,95.855 28.917,94.529 28.917,93L28.917,92.975C28.904,90.973 27.386,89.325 25.439,89.108C25.625,87.583 26.925,86.4 28.5,86.4C28.73,86.4 28.917,86.213 28.917,85.983C28.917,85.753 28.73,85.566 28.5,85.566C26.967,85.566 25.639,86.449 24.996,87.733C24.35,86.458 23.026,85.583 21.5,85.583C21.27,85.583 21.083,85.77 21.083,86C21.083,86.23 21.27,86.417 21.5,86.417C23.069,86.417 24.366,87.591 24.559,89.108C22.613,89.327 21.096,90.974 21.083,92.975L21.083,93C21.083,94.529 21.962,95.855 23.241,96.5C21.962,97.145 21.083,98.471 21.083,100L21.084,100.03L21.087,100.059L21.093,100.09L21.102,100.124L21.114,100.157L21.128,100.187L21.144,100.216L21.163,100.245L21.186,100.273L21.21,100.299L21.229,100.317L21.253,100.336L21.278,100.353L21.304,100.368L21.334,100.382L21.364,100.394L21.398,100.404L21.431,100.411L21.457,100.415L21.484,100.416ZM28.055,99.583C27.852,98.078 26.56,96.917 25,96.917L24.98,96.917C23.429,96.927 22.148,98.085 21.945,99.583L28.055,99.583ZM28.083,93C28.083,91.298 26.702,89.917 25,89.917L24.98,89.917C23.294,89.927 21.927,91.294 21.917,92.98L21.917,93C21.917,94.702 23.298,96.083 25,96.083L25.02,96.083C26.712,96.073 28.083,94.695 28.083,93Z"/>
            </g>
        </g>
    </g>
</svg>
