<?xml version="1.0" encoding="UTF-8" standalone="no"?>
<!DOCTYPE svg PUBLIC "-//W3C//DTD SVG 1.1//EN" "http://www.w3.org/Graphics/SVG/1.1/DTD/svg11.dtd">
<svg width="100%" height="100%" viewBox="0 0 16 16" version="1.1" xmlns="http://www.w3.org/2000/svg" xmlns:xlink="http://www.w3.org/1999/xlink" xml:space="preserve" xmlns:serif="http://www.serif.com/" style="fill-rule:evenodd;clip-rule:evenodd;stroke-linejoin:round;stroke-miterlimit:2;">
    <g transform="matrix(1,0,0,1,-17,-17)">
        <g id="near-open-front" serif:id="near-open front" transform="matrix(1,0,0,1,17,17)">
            <rect x="0" y="0" width="16" height="16" style="fill:none;"/>
            <g id="vowel" transform="matrix(1,0,0,1,-17,-17)">
                <path d="M24.559,21.108C22.613,21.327 21.096,22.974 21.083,24.975L21.083,25C21.083,26.251 21.671,27.366 22.586,28.083L21.5,28.083C21.287,28.083 21.111,28.243 21.086,28.45L21.084,28.481L21.083,28.5C21.083,30.653 22.825,32.403 24.975,32.417L25,32.417C27.162,32.417 28.917,30.662 28.917,28.5L28.915,28.467L28.912,28.436L28.905,28.402L28.896,28.371L28.885,28.34L28.871,28.31L28.856,28.284L28.84,28.259L28.818,28.231L28.794,28.205L28.77,28.183L28.747,28.164L28.722,28.147L28.696,28.132L28.668,28.119L28.635,28.106L28.602,28.096L28.569,28.089L28.537,28.085L28.503,28.083L28.5,28.083L27.414,28.083C28.329,27.366 28.917,26.251 28.917,25L28.917,24.975C28.904,22.973 27.386,21.325 25.439,21.108C25.625,19.583 26.925,18.4 28.5,18.4C28.73,18.4 28.917,18.213 28.917,17.983C28.917,17.753 28.73,17.566 28.5,17.566C26.967,17.566 25.639,18.449 24.996,19.733C24.35,18.458 23.026,17.583 21.5,17.583C21.27,17.583 21.083,17.77 21.083,18C21.083,18.23 21.27,18.417 21.5,18.417C23.069,18.417 24.366,19.591 24.559,21.108ZM21.945,28.917C22.148,30.422 23.44,31.583 25,31.583L25.02,31.583C26.571,31.573 27.852,30.415 28.055,28.917L21.945,28.917ZM28.083,25C28.083,23.298 26.702,21.917 25,21.917L24.98,21.917C23.294,21.927 21.927,23.294 21.917,24.98L21.917,25C21.917,26.702 23.298,28.083 25,28.083L25.02,28.083C26.712,28.073 28.083,26.695 28.083,25Z"/>
            </g>
        </g>
    </g>
</svg>
