<?xml version="1.0" encoding="UTF-8" standalone="no"?>
<!DOCTYPE svg PUBLIC "-//W3C//DTD SVG 1.1//EN" "http://www.w3.org/Graphics/SVG/1.1/DTD/svg11.dtd">
<svg width="100%" height="100%" viewBox="0 0 16 16" version="1.1" xmlns="http://www.w3.org/2000/svg" xmlns:xlink="http://www.w3.org/1999/xlink" xml:space="preserve" xmlns:serif="http://www.serif.com/" style="fill-rule:evenodd;clip-rule:evenodd;stroke-linejoin:round;stroke-miterlimit:2;">
    <g transform="matrix(1,0,0,1,-52,-17)">
        <g id="near-open-central" serif:id="near-open central" transform="matrix(1,0,0,1,52,17)">
            <rect x="0" y="0" width="16" height="16" style="fill:none;"/>
            <g id="vowel" transform="matrix(1,0,0,1,-52,-17)">
                <path d="M59.583,21.105C57.625,21.313 56.096,22.965 56.083,24.975L56.083,25C56.083,26.251 56.671,27.366 57.586,28.083L56.5,28.083C56.284,28.083 56.107,28.247 56.086,28.457L56.083,28.492L56.083,28.5C56.083,30.653 57.825,32.403 59.975,32.417L60,32.417C62.162,32.417 63.917,30.662 63.917,28.5L63.916,28.47L63.912,28.436L63.905,28.401L63.896,28.369L63.884,28.338L63.871,28.31L63.854,28.28L63.835,28.253L63.815,28.227L63.79,28.201L63.766,28.18L63.741,28.16L63.715,28.143L63.689,28.129L63.659,28.115L63.626,28.103L63.597,28.095L63.563,28.088L63.532,28.085L63.5,28.083L62.414,28.083C63.329,27.366 63.917,26.251 63.917,25L63.917,24.975C63.904,22.965 62.375,21.313 60.417,21.105L60.417,17.983C60.417,17.753 60.23,17.566 60,17.566C59.77,17.566 59.583,17.753 59.583,17.983L59.583,21.105ZM56.945,28.917C57.148,30.422 58.44,31.583 60,31.583L60.02,31.583C61.571,31.573 62.852,30.415 63.055,28.917L56.945,28.917ZM63.083,25C63.083,23.298 61.702,21.917 60,21.917L59.98,21.917C58.294,21.927 56.927,23.294 56.917,24.98L56.917,25C56.917,26.702 58.298,28.083 60,28.083L60.02,28.083C61.712,28.073 63.083,26.695 63.083,25Z"/>
            </g>
        </g>
    </g>
</svg>
