<?xml version="1.0" encoding="UTF-8" standalone="no"?>
<!DOCTYPE svg PUBLIC "-//W3C//DTD SVG 1.1//EN" "http://www.w3.org/Graphics/SVG/1.1/DTD/svg11.dtd">
<svg width="100%" height="100%" viewBox="0 0 16 16" version="1.1" xmlns="http://www.w3.org/2000/svg" xmlns:xlink="http://www.w3.org/1999/xlink" xml:space="preserve" xmlns:serif="http://www.serif.com/" style="fill-rule:evenodd;clip-rule:evenodd;stroke-linejoin:round;stroke-miterlimit:2;">
    <g transform="matrix(1,0,0,1,-87,-85)">
        <g id="near-close-back" serif:id="near-close back" transform="matrix(1,0,0,1,87,85)">
            <rect x="0" y="0" width="16" height="16" style="fill:none;"/>
            <g id="vowel" transform="matrix(1,0,0,1,-87,-85)">
                <path d="M91.465,100.415L91.5,100.417L98.5,100.417C98.699,100.417 98.865,100.278 98.907,100.092L98.912,100.065L98.915,100.034L98.917,100.005L98.917,100C98.917,98.471 98.038,97.145 96.759,96.5C98.038,95.855 98.917,94.529 98.917,93L98.917,92.975C98.907,91.456 98.031,90.141 96.759,89.5C98.038,88.855 98.917,87.529 98.917,86C98.917,85.77 98.73,85.583 98.5,85.583C98.27,85.583 98.083,85.77 98.083,86C98.083,87.702 96.702,89.083 95,89.083C93.298,89.083 91.917,87.702 91.917,86C91.917,85.77 91.73,85.583 91.5,85.583C91.27,85.583 91.083,85.77 91.083,86C91.083,87.529 91.962,88.855 93.241,89.5C91.969,90.141 91.093,91.456 91.083,92.975L91.083,93C91.083,94.529 91.962,95.855 93.241,96.5C91.962,97.145 91.083,98.471 91.083,100L91.084,100.027L91.086,100.046L91.091,100.08L91.098,100.11L91.108,100.142L91.12,100.171L91.135,100.202L91.148,100.222L91.168,100.251L91.187,100.275L91.211,100.3L91.234,100.32L91.261,100.342L91.284,100.357L91.316,100.374L91.343,100.386L91.374,100.397L91.406,100.406L91.434,100.411L91.465,100.415ZM98.055,99.583C97.852,98.078 96.56,96.917 95,96.917L94.98,96.917C93.429,96.927 92.148,98.085 91.945,99.583L98.055,99.583ZM98.083,93C98.083,91.298 96.702,89.917 95,89.917L94.98,89.917C93.294,89.927 91.927,91.294 91.917,92.98L91.917,93C91.917,94.702 93.298,96.083 95,96.083L95.02,96.083C96.712,96.073 98.083,94.695 98.083,93Z"/>
            </g>
        </g>
    </g>
</svg>
