<?xml version="1.0" encoding="UTF-8" standalone="no"?>
<!DOCTYPE svg PUBLIC "-//W3C//DTD SVG 1.1//EN" "http://www.w3.org/Graphics/SVG/1.1/DTD/svg11.dtd">
<svg width="100%" height="100%" viewBox="0 0 16 16" version="1.1" xmlns="http://www.w3.org/2000/svg" xmlns:xlink="http://www.w3.org/1999/xlink" xml:space="preserve" xmlns:serif="http://www.serif.com/" style="fill-rule:evenodd;clip-rule:evenodd;stroke-linejoin:round;stroke-miterlimit:2;">
    <g transform="matrix(1,0,0,1,0,-85)">
        <g id="near-close-front-alt" serif:id="near-close front alt" transform="matrix(1,0,0,1,0,85)">
            <rect x="0" y="0" width="16" height="16" style="fill:none;"/>
            <g id="vowel" transform="matrix(1,0,0,1,0,-85)">
                <path d="M4.484,100.416L4.5,100.417L11.5,100.417C11.695,100.417 11.859,100.283 11.904,100.102L11.911,100.067L11.915,100.035L11.917,100C11.917,98.471 11.038,97.145 9.759,96.5C11.038,95.855 11.917,94.529 11.917,93L11.917,92.975C11.904,90.973 10.386,89.325 8.439,89.108C8.625,87.583 9.925,86.4 11.5,86.4C11.73,86.4 11.917,86.213 11.917,85.983C11.917,85.753 11.73,85.566 11.5,85.566C9.967,85.566 8.639,86.449 7.996,87.733C7.35,86.458 6.026,85.583 4.5,85.583C4.27,85.583 4.083,85.77 4.083,86C4.083,86.23 4.27,86.417 4.5,86.417C6.069,86.417 7.366,87.591 7.559,89.108C5.613,89.327 4.096,90.974 4.083,92.975L4.083,93C4.083,94.529 4.962,95.855 6.241,96.5C4.962,97.145 4.083,98.471 4.083,100L4.085,100.033L4.088,100.064L4.094,100.095L4.104,100.13L4.115,100.16L4.129,100.19L4.145,100.218L4.163,100.245L4.182,100.269L4.206,100.295L4.23,100.317L4.258,100.339L4.282,100.355L4.306,100.369L4.331,100.381L4.363,100.393L4.393,100.403L4.421,100.409L4.455,100.414L4.484,100.416ZM8,96.917L7.98,96.917C7.856,96.918 7.732,96.926 7.609,96.941C7.398,96.968 7.189,97.017 6.988,97.087C6.617,97.216 6.271,97.417 5.975,97.676C5.647,97.961 5.381,98.316 5.199,98.711C5.117,98.887 5.053,99.072 5.006,99.26C4.98,99.366 4.96,99.473 4.945,99.58L4.945,99.583L11.055,99.583C10.852,98.078 9.56,96.917 8,96.917ZM8,96.083C8,96.083 8.02,96.083 8.02,96.083C9.712,96.073 11.083,94.695 11.083,93C11.083,91.298 9.702,89.917 8,89.917L7.98,89.917C6.294,89.927 4.927,91.294 4.917,92.98L4.917,93C4.917,94.702 6.298,96.083 8,96.083ZM8,92.167C8.46,92.167 8.833,92.54 8.833,93C8.833,93.46 8.46,93.833 8,93.833C7.54,93.833 7.167,93.46 7.167,93C7.167,92.54 7.54,92.167 8,92.167Z"/>
            </g>
        </g>
    </g>
</svg>
