<?xml version="1.0" encoding="UTF-8" standalone="no"?>
<!DOCTYPE svg PUBLIC "-//W3C//DTD SVG 1.1//EN" "http://www.w3.org/Graphics/SVG/1.1/DTD/svg11.dtd">
<svg width="100%" height="100%" viewBox="0 0 16 16" version="1.1" xmlns="http://www.w3.org/2000/svg" xmlns:xlink="http://www.w3.org/1999/xlink" xml:space="preserve" xmlns:serif="http://www.serif.com/" style="fill-rule:evenodd;clip-rule:evenodd;stroke-linejoin:round;stroke-miterlimit:2;">
    <g transform="matrix(1,0,0,1,-70,0)">
        <g id="open-back-alt" serif:id="open back alt" transform="matrix(1,0,0,1,70,7.10543e-15)">
            <rect x="0" y="0" width="16" height="16" style="fill:none;"/>
            <g id="vowel" transform="matrix(1,0,0,1,-70,-7.10543e-15)">
                <path d="M76.241,4.5C74.969,5.141 74.093,6.456 74.083,7.975L74.083,8C74.083,9.251 74.671,10.366 75.586,11.083L74.5,11.083C74.27,11.083 74.083,11.27 74.083,11.5C74.083,11.73 74.27,11.917 74.5,11.917L81.5,11.917C81.73,11.917 81.917,11.73 81.917,11.5C81.917,11.27 81.73,11.083 81.5,11.083L80.414,11.083C81.329,10.366 81.917,9.251 81.917,8L81.917,7.975C81.907,6.456 81.031,5.141 79.759,4.5C81.038,3.855 81.917,2.529 81.917,1C81.917,0.77 81.73,0.583 81.5,0.583C81.27,0.583 81.083,0.77 81.083,1C81.083,2.702 79.702,4.083 78,4.083C76.298,4.083 74.917,2.702 74.917,1C74.917,0.77 74.73,0.583 74.5,0.583C74.27,0.583 74.083,0.77 74.083,1C74.083,2.529 74.962,3.855 76.241,4.5ZM78,11.083C78,11.083 78.02,11.083 78.02,11.083C79.712,11.073 81.083,9.695 81.083,8C81.083,6.298 79.702,4.917 78,4.917L77.98,4.917C76.294,4.927 74.927,6.294 74.917,7.98L74.917,8C74.917,9.702 76.298,11.083 78,11.083ZM78,7.167C78.46,7.167 78.833,7.54 78.833,8C78.833,8.46 78.46,8.833 78,8.833C77.54,8.833 77.167,8.46 77.167,8C77.167,7.54 77.54,7.167 78,7.167Z"/>
            </g>
        </g>
    </g>
</svg>
