<?xml version="1.0" encoding="UTF-8" standalone="no"?>
<!DOCTYPE svg PUBLIC "-//W3C//DTD SVG 1.1//EN" "http://www.w3.org/Graphics/SVG/1.1/DTD/svg11.dtd">
<svg width="100%" height="100%" viewBox="0 0 16 16" version="1.1" xmlns="http://www.w3.org/2000/svg" xmlns:xlink="http://www.w3.org/1999/xlink" xml:space="preserve" xmlns:serif="http://www.serif.com/" style="fill-rule:evenodd;clip-rule:evenodd;stroke-linejoin:round;stroke-miterlimit:2;">
    <g transform="matrix(1,0,0,1,-35,0)">
        <g id="open-central-alt" serif:id="open central alt" transform="matrix(1,0,0,1,35,7.10543e-15)">
            <rect x="0" y="0" width="16" height="16" style="fill:none;"/>
            <g id="vowel" transform="matrix(1,0,0,1,-35,-7.10543e-15)">
                <path d="M42.583,4.105C40.625,4.313 39.096,5.965 39.083,7.975L39.083,8C39.083,9.251 39.671,10.366 40.586,11.083L39.5,11.083C39.27,11.083 39.083,11.27 39.083,11.5C39.083,11.73 39.27,11.917 39.5,11.917L46.5,11.917C46.73,11.917 46.917,11.73 46.917,11.5C46.917,11.27 46.73,11.083 46.5,11.083L45.414,11.083C46.329,10.366 46.917,9.251 46.917,8L46.917,7.975C46.904,5.965 45.375,4.313 43.417,4.105L43.417,0.983C43.417,0.753 43.23,0.566 43,0.566C42.77,0.566 42.583,0.753 42.583,0.983L42.583,4.105ZM43,11.083C43,11.083 43.02,11.083 43.02,11.083C44.712,11.073 46.083,9.695 46.083,8C46.083,6.298 44.702,4.917 43,4.917L42.98,4.917C41.294,4.927 39.927,6.294 39.917,7.98L39.917,8C39.917,9.702 41.298,11.083 43,11.083ZM43,7.167C43.46,7.167 43.833,7.54 43.833,8C43.833,8.46 43.46,8.833 43,8.833C42.54,8.833 42.167,8.46 42.167,8C42.167,7.54 42.54,7.167 43,7.167Z"/>
            </g>
        </g>
    </g>
</svg>
