<?xml version="1.0" encoding="UTF-8" standalone="no"?>
<!DOCTYPE svg PUBLIC "-//W3C//DTD SVG 1.1//EN" "http://www.w3.org/Graphics/SVG/1.1/DTD/svg11.dtd">
<svg width="100%" height="100%" viewBox="0 0 16 16" version="1.1" xmlns="http://www.w3.org/2000/svg" xmlns:xlink="http://www.w3.org/1999/xlink" xml:space="preserve" xmlns:serif="http://www.serif.com/" style="fill-rule:evenodd;clip-rule:evenodd;stroke-linejoin:round;stroke-miterlimit:2;">
    <rect id="open-front-alt" serif:id="open front alt" x="0" y="0" width="16" height="16" style="fill:none;"/>
    <g id="open-front-alt1" serif:id="open front alt">
        <path id="vowel" d="M7.559,4.108C5.613,4.327 4.096,5.974 4.083,7.975L4.083,8C4.083,9.251 4.671,10.366 5.586,11.083L4.5,11.083C4.27,11.083 4.083,11.27 4.083,11.5C4.083,11.73 4.27,11.917 4.5,11.917L11.5,11.917C11.73,11.917 11.917,11.73 11.917,11.5C11.917,11.27 11.73,11.083 11.5,11.083L10.414,11.083C11.329,10.366 11.917,9.251 11.917,8L11.917,7.975C11.904,5.973 10.386,4.325 8.439,4.108C8.625,2.583 9.925,1.4 11.5,1.4C11.73,1.4 11.917,1.213 11.917,0.983C11.917,0.753 11.73,0.566 11.5,0.566C9.967,0.566 8.639,1.449 7.996,2.733C7.35,1.458 6.026,0.583 4.5,0.583C4.27,0.583 4.083,0.77 4.083,1C4.083,1.23 4.27,1.417 4.5,1.417C6.069,1.417 7.366,2.591 7.559,4.108ZM8,11.083C8,11.083 8.02,11.083 8.02,11.083C9.712,11.073 11.083,9.695 11.083,8C11.083,6.298 9.702,4.917 8,4.917L7.98,4.917C6.294,4.927 4.927,6.294 4.917,7.98L4.917,8C4.917,9.702 6.298,11.083 8,11.083ZM8,7.167C8.46,7.167 8.833,7.54 8.833,8C8.833,8.46 8.46,8.833 8,8.833C7.54,8.833 7.167,8.46 7.167,8C7.167,7.54 7.54,7.167 8,7.167Z"/>
    </g>
</svg>
