<?xml version="1.0" encoding="UTF-8" standalone="no"?>
<!DOCTYPE svg PUBLIC "-//W3C//DTD SVG 1.1//EN" "http://www.w3.org/Graphics/SVG/1.1/DTD/svg11.dtd">
<svg width="100%" height="100%" viewBox="0 0 16 16" version="1.1" xmlns="http://www.w3.org/2000/svg" xmlns:xlink="http://www.w3.org/1999/xlink" xml:space="preserve" xmlns:serif="http://www.serif.com/" style="fill-rule:evenodd;clip-rule:evenodd;stroke-linejoin:round;stroke-miterlimit:2;">
    <g transform="matrix(1,0,0,1,-17,0)">
        <g id="open-front" serif:id="open front" transform="matrix(1,0,0,1,17,7.10543e-15)">
            <rect x="0" y="0" width="16" height="16" style="fill:none;"/>
            <g id="vowel" transform="matrix(1,0,0,1,-17,-7.10543e-15)">
                <path d="M24.559,4.108C22.613,4.327 21.096,5.974 21.083,7.975L21.083,8C21.083,9.251 21.671,10.366 22.586,11.083L21.5,11.083C21.27,11.083 21.083,11.27 21.083,11.5C21.083,11.73 21.27,11.917 21.5,11.917L28.5,11.917C28.73,11.917 28.917,11.73 28.917,11.5C28.917,11.27 28.73,11.083 28.5,11.083L27.414,11.083C28.329,10.366 28.917,9.251 28.917,8L28.917,7.975C28.904,5.973 27.386,4.325 25.439,4.108C25.625,2.583 26.925,1.4 28.5,1.4C28.73,1.4 28.917,1.213 28.917,0.983C28.917,0.753 28.73,0.566 28.5,0.566C26.967,0.566 25.639,1.449 24.996,2.733C24.35,1.458 23.026,0.583 21.5,0.583C21.27,0.583 21.083,0.77 21.083,1C21.083,1.23 21.27,1.417 21.5,1.417C23.069,1.417 24.366,2.591 24.559,4.108ZM25,11.083C25,11.083 25.02,11.083 25.02,11.083C26.712,11.073 28.083,9.695 28.083,8C28.083,6.298 26.702,4.917 25,4.917L24.98,4.917C23.294,4.927 21.927,6.294 21.917,7.98L21.917,8C21.917,9.702 23.298,11.083 25,11.083Z"/>
            </g>
        </g>
    </g>
</svg>
