<?xml version="1.0" encoding="UTF-8" standalone="no"?>
<!DOCTYPE svg PUBLIC "-//W3C//DTD SVG 1.1//EN" "http://www.w3.org/Graphics/SVG/1.1/DTD/svg11.dtd">
<svg width="100%" height="100%" viewBox="0 0 16 16" version="1.1" xmlns="http://www.w3.org/2000/svg" xmlns:xlink="http://www.w3.org/1999/xlink" xml:space="preserve" xmlns:serif="http://www.serif.com/" style="fill-rule:evenodd;clip-rule:evenodd;stroke-linejoin:round;stroke-miterlimit:2;">
    <g transform="matrix(1,0,0,1,-17,-17)">
        <g id="retroflex" transform="matrix(1,0,0,1,17,17)">
            <rect x="0" y="0" width="16" height="16" style="fill:none;"/>
            <g id="consonant" transform="matrix(1,0,0,1,-17,-17)">
                <path d="M24.583,28.055C23.078,27.852 21.917,26.56 21.917,25C21.917,24.77 21.73,24.583 21.5,24.583C21.27,24.583 21.083,24.77 21.083,25C21.083,27.153 22.825,28.903 24.975,28.917L25,28.917C27.162,28.917 28.917,27.162 28.917,25C28.917,24.77 28.73,24.583 28.5,24.583C28.27,24.583 28.083,24.77 28.083,25C28.083,26.561 26.922,27.852 25.417,28.055L25.417,21.5C25.417,21.27 25.23,21.083 25,21.083C24.77,21.083 24.583,21.27 24.583,21.5L24.583,28.055ZM24.975,17.583L25,17.583C27.162,17.583 28.917,19.338 28.917,21.5C28.917,21.73 28.73,21.917 28.5,21.917C28.27,21.917 28.083,21.73 28.083,21.5C28.083,19.798 26.702,18.417 25,18.417C23.298,18.417 21.917,19.798 21.917,21.5C21.917,21.73 21.73,21.917 21.5,21.917C21.27,21.917 21.083,21.73 21.083,21.5C21.083,19.347 22.825,17.597 24.975,17.583Z"/>
            </g>
        </g>
    </g>
</svg>
