<?xml version="1.0" encoding="UTF-8" standalone="no"?>
<!DOCTYPE svg PUBLIC "-//W3C//DTD SVG 1.1//EN" "http://www.w3.org/Graphics/SVG/1.1/DTD/svg11.dtd">
<svg width="100%" height="100%" viewBox="0 0 8 16" version="1.1" xmlns="http://www.w3.org/2000/svg" xmlns:xlink="http://www.w3.org/1999/xlink" xml:space="preserve" xmlns:serif="http://www.serif.com/" style="fill-rule:evenodd;clip-rule:evenodd;stroke-linejoin:round;stroke-miterlimit:2;">
    <g id="start" transform="matrix(0.496875,0,0,1,0,0)">
        <rect x="0" y="0" width="16" height="16" style="fill:none;"/>
        <clipPath id="_clip1">
            <rect x="0" y="0" width="16" height="16"/>
        </clipPath>
        <g clip-path="url(#_clip1)">
            <g id="start1" serif:id="start" transform="matrix(2.01258,0,0,1,0,-1.77636e-15)">
                <path d="M7.95,8.414C7.934,8.416 7.917,8.417 7.9,8.417L4.4,8.417L4.4,11.5C4.4,11.73 4.213,11.917 3.983,11.917C3.753,11.917 3.567,11.73 3.567,11.5L3.567,4.5C3.567,4.27 3.753,4.083 3.983,4.083C4.213,4.083 4.4,4.27 4.4,4.5L4.4,7.583L7.9,7.583C7.917,7.583 7.934,7.584 7.95,7.586L7.95,8.414Z"/>
            </g>
        </g>
    </g>
</svg>
