<?xml version="1.0" encoding="UTF-8" standalone="no"?>
<!DOCTYPE svg PUBLIC "-//W3C//DTD SVG 1.1//EN" "http://www.w3.org/Graphics/SVG/1.1/DTD/svg11.dtd">
<svg width="100%" height="100%" viewBox="0 0 16 16" version="1.1" xmlns="http://www.w3.org/2000/svg" xmlns:xlink="http://www.w3.org/1999/xlink" xml:space="preserve" xmlns:serif="http://www.serif.com/" style="fill-rule:evenodd;clip-rule:evenodd;stroke-linejoin:round;stroke-miterlimit:2;">
    <g transform="matrix(1,0,0,1,0,-17)">
        <g id="unvoiced-dental" serif:id="unvoiced dental" transform="matrix(1,0,0,1,0,17)">
            <rect x="0" y="0" width="16" height="16" style="fill:none;"/>
            <g id="consonant" transform="matrix(1,0,0,1,0,-17)">
                <path d="M8,29.417C8.46,29.417 8.833,29.79 8.833,30.25C8.833,30.71 8.46,31.083 8,31.083C7.54,31.083 7.167,30.71 7.167,30.25C7.167,29.79 7.54,29.417 8,29.417ZM7.583,21.895L7.583,24.583L4.5,24.583C4.27,24.583 4.083,24.77 4.083,25C4.083,25.23 4.27,25.417 4.5,25.417L7.583,25.417L7.583,28.5C7.583,28.73 7.77,28.917 8,28.917C8.23,28.917 8.417,28.73 8.417,28.5L8.417,25.417L11.5,25.417C11.73,25.417 11.917,25.23 11.917,25C11.917,24.77 11.73,24.583 11.5,24.583L8.417,24.583L8.417,21.895C10.383,21.686 11.917,20.021 11.917,18C11.917,17.77 11.73,17.583 11.5,17.583C11.27,17.583 11.083,17.77 11.083,18C11.083,19.702 9.702,21.083 8,21.083C6.298,21.083 4.917,19.702 4.917,18C4.917,17.77 4.73,17.583 4.5,17.583C4.27,17.583 4.083,17.77 4.083,18C4.083,20.021 5.617,21.687 7.583,21.895Z"/>
            </g>
        </g>
    </g>
</svg>
