<?xml version="1.0" encoding="UTF-8" standalone="no"?>
<!DOCTYPE svg PUBLIC "-//W3C//DTD SVG 1.1//EN" "http://www.w3.org/Graphics/SVG/1.1/DTD/svg11.dtd">
<svg width="100%" height="100%" viewBox="0 0 16 16" version="1.1" xmlns="http://www.w3.org/2000/svg" xmlns:xlink="http://www.w3.org/1999/xlink" xml:space="preserve" xmlns:serif="http://www.serif.com/" style="fill-rule:evenodd;clip-rule:evenodd;stroke-linejoin:round;stroke-miterlimit:2;">
    <rect id="unvoiced-labiodental" serif:id="unvoiced labiodental" x="0" y="0" width="16" height="16" style="fill:none;"/>
    <g id="unvoiced-labiodental1" serif:id="unvoiced labiodental">
        <path id="consonant" d="M8,12.417C8.46,12.417 8.833,12.79 8.833,13.25C8.833,13.71 8.46,14.083 8,14.083C7.54,14.083 7.167,13.71 7.167,13.25C7.167,12.79 7.54,12.417 8,12.417ZM7.583,4.895L7.583,7.555C6.078,7.352 4.917,6.06 4.917,4.5C4.917,4.27 4.73,4.083 4.5,4.083C4.27,4.083 4.083,4.27 4.083,4.5C4.083,5.751 4.671,6.866 5.586,7.583L4.5,7.583C4.27,7.583 4.083,7.77 4.083,8C4.083,8.23 4.27,8.417 4.5,8.417L7.583,8.417L7.583,11.5C7.583,11.73 7.77,11.917 8,11.917C8.23,11.917 8.417,11.73 8.417,11.5L8.417,8.417L11.5,8.417C11.73,8.417 11.917,8.23 11.917,8C11.917,7.77 11.73,7.583 11.5,7.583L10.414,7.583C11.329,6.866 11.917,5.751 11.917,4.5C11.917,4.27 11.73,4.083 11.5,4.083C11.27,4.083 11.083,4.27 11.083,4.5C11.083,6.06 9.922,7.352 8.417,7.555L8.417,4.895C10.383,4.686 11.917,3.021 11.917,1C11.917,0.77 11.73,0.583 11.5,0.583C11.27,0.583 11.083,0.77 11.083,1C11.083,2.702 9.702,4.083 8,4.083C6.298,4.083 4.917,2.702 4.917,1C4.917,0.77 4.73,0.583 4.5,0.583C4.27,0.583 4.083,0.77 4.083,1C4.083,3.021 5.617,4.687 7.583,4.895Z"/>
    </g>
</svg>
