<?xml version="1.0" encoding="UTF-8" standalone="no"?>
<!DOCTYPE svg PUBLIC "-//W3C//DTD SVG 1.1//EN" "http://www.w3.org/Graphics/SVG/1.1/DTD/svg11.dtd">
<svg width="100%" height="100%" viewBox="0 0 16 16" version="1.1" xmlns="http://www.w3.org/2000/svg" xmlns:xlink="http://www.w3.org/1999/xlink" xml:space="preserve" xmlns:serif="http://www.serif.com/" style="fill-rule:evenodd;clip-rule:evenodd;stroke-linejoin:round;stroke-miterlimit:2;">
    <g transform="matrix(1,0,0,1,0,-51)">
        <g id="unvoiced-post-alveolar" serif:id="unvoiced post-alveolar" transform="matrix(1,0,0,1,0,51)">
            <rect x="0" y="0" width="16" height="16" style="fill:none;"/>
            <g transform="matrix(1,0,0,1,0,-51)">
                <path d="M8,63.417C8.46,63.417 8.833,63.79 8.833,64.25C8.833,64.71 8.46,65.083 8,65.083C7.54,65.083 7.167,64.71 7.167,64.25C7.167,63.79 7.54,63.417 8,63.417ZM7.583,55.895L7.583,58.605C5.617,58.814 4.083,60.479 4.083,62.5L4.091,62.582L4.115,62.66L4.155,62.733L4.211,62.8L4.276,62.851L4.35,62.889L4.429,62.911L4.5,62.917L11.5,62.917C11.714,62.917 11.89,62.755 11.914,62.548L11.917,62.5C11.917,60.479 10.383,58.813 8.417,58.605L8.417,55.895C10.383,55.686 11.917,54.021 11.917,52C11.917,51.77 11.73,51.583 11.5,51.583C11.27,51.583 11.083,51.77 11.083,52C11.083,53.702 9.702,55.083 8,55.083C6.298,55.083 4.917,53.702 4.917,52C4.917,51.77 4.73,51.583 4.5,51.583C4.27,51.583 4.083,51.77 4.083,52C4.083,54.021 5.617,55.687 7.583,55.895ZM8.417,59.445L8.417,62.083L11.055,62.083C10.87,60.715 9.785,59.63 8.417,59.445ZM7.583,59.445C6.215,59.63 5.13,60.715 4.945,62.083L7.583,62.083L7.583,59.445Z"/>
            </g>
        </g>
    </g>
</svg>
