<?xml version="1.0" encoding="UTF-8" standalone="no"?>
<!DOCTYPE svg PUBLIC "-//W3C//DTD SVG 1.1//EN" "http://www.w3.org/Graphics/SVG/1.1/DTD/svg11.dtd">
<svg width="100%" height="100%" viewBox="0 0 16 16" version="1.1" xmlns="http://www.w3.org/2000/svg" xmlns:xlink="http://www.w3.org/1999/xlink" xml:space="preserve" xmlns:serif="http://www.serif.com/" style="fill-rule:evenodd;clip-rule:evenodd;stroke-linejoin:round;stroke-miterlimit:2;">
    <g transform="matrix(1,0,0,1,-17,-51)">
        <g id="velar" transform="matrix(1,0,0,1,17,51)">
            <rect x="0" y="0" width="16" height="16" style="fill:none;"/>
            <g id="consonant" transform="matrix(1,0,0,1,-17,-51)">
                <path d="M24.583,62.105C22.617,62.314 21.083,63.979 21.083,66C21.083,66.23 21.27,66.417 21.5,66.417C21.73,66.417 21.917,66.23 21.917,66C21.917,64.305 23.288,62.927 24.98,62.917L25,62.917C26.702,62.917 28.083,64.298 28.083,66C28.083,66.23 28.27,66.417 28.5,66.417C28.73,66.417 28.917,66.23 28.917,66C28.917,63.979 27.383,62.313 25.417,62.105L25.417,55.5C25.417,55.27 25.23,55.083 25,55.083C24.77,55.083 24.583,55.27 24.583,55.5L24.583,62.105ZM24.975,51.583L25,51.583C27.162,51.583 28.917,53.338 28.917,55.5C28.917,55.73 28.73,55.917 28.5,55.917C28.27,55.917 28.083,55.73 28.083,55.5C28.083,53.798 26.702,52.417 25,52.417C23.298,52.417 21.917,53.798 21.917,55.5C21.917,55.73 21.73,55.917 21.5,55.917C21.27,55.917 21.083,55.73 21.083,55.5C21.083,53.347 22.825,51.597 24.975,51.583Z"/>
            </g>
        </g>
    </g>
</svg>
