<?xml version="1.0" encoding="UTF-8" standalone="no"?>
<!DOCTYPE svg PUBLIC "-//W3C//DTD SVG 1.1//EN" "http://www.w3.org/Graphics/SVG/1.1/DTD/svg11.dtd">
<svg width="100%" height="100%" viewBox="0 0 16 16" version="1.1" xmlns="http://www.w3.org/2000/svg" xmlns:xlink="http://www.w3.org/1999/xlink" xml:space="preserve" xmlns:serif="http://www.serif.com/" style="fill-rule:evenodd;clip-rule:evenodd;stroke-linejoin:round;stroke-miterlimit:2;">
    <g transform="matrix(1,0,0,1,-17,-17)">
        <g id="voiceless-retroflex" serif:id="voiceless retroflex" transform="matrix(1,0,0,1,17,17)">
            <rect x="0" y="0" width="16" height="16" style="fill:none;"/>
            <g id="consonant" transform="matrix(1,0,0,1,-17,-17)">
                <path d="M25,29.417C25.46,29.417 25.833,29.79 25.833,30.25C25.833,30.71 25.46,31.083 25,31.083C24.54,31.083 24.167,30.71 24.167,30.25C24.167,29.79 24.54,29.417 25,29.417ZM24.583,21.5L24.583,28.055C23.078,27.852 21.917,26.56 21.917,25C21.917,24.77 21.73,24.583 21.5,24.583C21.27,24.583 21.083,24.77 21.083,25C21.083,27.153 22.825,28.903 24.975,28.917L25,28.917C27.162,28.917 28.917,27.162 28.917,25C28.917,24.77 28.73,24.583 28.5,24.583C28.27,24.583 28.083,24.77 28.083,25C28.083,26.561 26.922,27.852 25.417,28.055L25.417,21.483C25.417,19.781 26.798,18.4 28.5,18.4C28.73,18.4 28.917,18.213 28.917,17.983C28.917,17.753 28.73,17.566 28.5,17.566C26.967,17.566 25.639,18.449 24.996,19.733C24.35,18.458 23.026,17.583 21.5,17.583C21.27,17.583 21.083,17.77 21.083,18C21.083,18.23 21.27,18.417 21.5,18.417C23.202,18.417 24.583,19.798 24.583,21.5Z"/>
            </g>
        </g>
    </g>
</svg>
