<?xml version="1.0" encoding="UTF-8" standalone="no"?>
<!DOCTYPE svg PUBLIC "-//W3C//DTD SVG 1.1//EN" "http://www.w3.org/Graphics/SVG/1.1/DTD/svg11.dtd">
<svg width="100%" height="100%" viewBox="0 0 16 16" version="1.1" xmlns="http://www.w3.org/2000/svg" xmlns:xlink="http://www.w3.org/1999/xlink" xml:space="preserve" xmlns:serif="http://www.serif.com/" style="fill-rule:evenodd;clip-rule:evenodd;stroke-linejoin:round;stroke-miterlimit:2;">
    <g transform="matrix(1,0,0,1,-18,-54)">
        <g id="voiced-palatal" serif:id="voiced palatal" transform="matrix(1,0,0,1,18,54)">
            <rect x="0" y="0" width="16" height="16" style="fill:none;"/>
            <g id="consonant" transform="matrix(1,0,0,1,-18,-54)">
                <path d="M26.417,65.083L26.417,58.917L29.5,58.917C29.73,58.917 29.917,58.73 29.917,58.5C29.917,58.27 29.73,58.083 29.5,58.083L22.5,58.083C22.27,58.083 22.083,58.27 22.083,58.5C22.083,58.73 22.27,58.917 22.5,58.917L25.583,58.917L25.583,65.083L22.5,65.083C22.27,65.083 22.083,65.27 22.083,65.5C22.083,65.73 22.27,65.917 22.5,65.917L29.5,65.917C29.73,65.917 29.917,65.73 29.917,65.5C29.917,65.27 29.73,65.083 29.5,65.083L26.417,65.083Z"/>
            </g>
        </g>
    </g>
</svg>
