<?xml version="1.0" encoding="UTF-8" standalone="no"?>
<!DOCTYPE svg PUBLIC "-//W3C//DTD SVG 1.1//EN" "http://www.w3.org/Graphics/SVG/1.1/DTD/svg11.dtd">
<svg width="100%" height="100%" viewBox="0 0 16 16" version="1.1" xmlns="http://www.w3.org/2000/svg" xmlns:xlink="http://www.w3.org/1999/xlink" xml:space="preserve" xmlns:serif="http://www.serif.com/" style="fill-rule:evenodd;clip-rule:evenodd;stroke-linejoin:round;stroke-miterlimit:2;">
    <g transform="matrix(1,0,0,1,0,-17)">
        <g id="voiced-retroflex" serif:id="voiced retroflex" transform="matrix(1,0,0,1,7.10543e-15,17)">
            <rect x="0" y="0" width="16" height="16" style="fill:none;"/>
            <g id="consonant" transform="matrix(1,0,0,1,-7.10543e-15,-17)">
                <path d="M7.975,28.917L8,28.917C10.162,28.917 11.917,27.162 11.917,25C11.917,24.77 11.73,24.583 11.5,24.583C11.27,24.583 11.083,24.77 11.083,25C11.083,26.561 9.922,27.852 8.417,28.055L8.417,21.483C8.417,19.781 9.798,18.4 11.5,18.4C11.73,18.4 11.917,18.213 11.917,17.983C11.917,17.753 11.73,17.566 11.5,17.566C9.967,17.566 8.639,18.449 7.996,19.733C7.35,18.458 6.026,17.583 4.5,17.583C4.27,17.583 4.083,17.77 4.083,18C4.083,18.23 4.27,18.417 4.5,18.417C6.202,18.417 7.583,19.798 7.583,21.5L7.583,28.055C6.078,27.852 4.917,26.56 4.917,25C4.917,24.77 4.73,24.583 4.5,24.583C4.27,24.583 4.083,24.77 4.083,25C4.083,27.153 5.825,28.903 7.975,28.917Z"/>
            </g>
        </g>
    </g>
</svg>
