<?xml version="1.0" encoding="UTF-8" standalone="no"?>
<!DOCTYPE svg PUBLIC "-//W3C//DTD SVG 1.1//EN" "http://www.w3.org/Graphics/SVG/1.1/DTD/svg11.dtd">
<svg width="100%" height="100%" viewBox="0 0 16 16" version="1.1" xmlns="http://www.w3.org/2000/svg" xmlns:xlink="http://www.w3.org/1999/xlink" xml:space="preserve" xmlns:serif="http://www.serif.com/" style="fill-rule:evenodd;clip-rule:evenodd;stroke-linejoin:round;stroke-miterlimit:2;">
    <g transform="matrix(1,0,0,1,-34,-34)">
        <g id="voiced-alveolar-trill" serif:id="voiced alveolar trill" transform="matrix(1,0,0,1,34,34)">
            <rect x="0" y="0" width="16" height="16" style="fill:none;"/>
            <g id="consonant" transform="matrix(1,0,0,1,-34,-34)">
                <path d="M41.583,38.895L41.583,41.605C39.617,41.814 38.083,43.479 38.083,45.5C38.083,45.73 38.27,45.917 38.5,45.917C38.73,45.917 38.917,45.73 38.917,45.5C38.917,43.939 40.078,42.648 41.583,42.445L41.583,45.5C41.583,45.73 41.77,45.917 42,45.917C42.23,45.917 42.417,45.73 42.417,45.5L42.417,42.445C43.922,42.648 45.083,43.94 45.083,45.5C45.083,45.73 45.27,45.917 45.5,45.917C45.73,45.917 45.917,45.73 45.917,45.5C45.917,43.479 44.383,41.813 42.417,41.605L42.417,38.895C44.383,38.686 45.917,37.021 45.917,35C45.917,34.77 45.73,34.583 45.5,34.583C45.27,34.583 45.083,34.77 45.083,35C45.083,36.702 43.702,38.083 42,38.083C40.298,38.083 38.917,36.702 38.917,35C38.917,34.77 38.73,34.583 38.5,34.583C38.27,34.583 38.083,34.77 38.083,35C38.083,37.021 39.617,38.687 41.583,38.895ZM42,35.9C42.46,35.9 42.833,36.273 42.833,36.733C42.833,37.193 42.46,37.566 42,37.566C41.54,37.566 41.167,37.193 41.167,36.733C41.167,36.273 41.54,35.9 42,35.9Z"/>
            </g>
        </g>
    </g>
</svg>
