<?xml version="1.0" encoding="UTF-8" standalone="no"?>
<!DOCTYPE svg PUBLIC "-//W3C//DTD SVG 1.1//EN" "http://www.w3.org/Graphics/SVG/1.1/DTD/svg11.dtd">
<svg width="100%" height="100%" viewBox="0 0 16 17" version="1.1" xmlns="http://www.w3.org/2000/svg" xmlns:xlink="http://www.w3.org/1999/xlink" xml:space="preserve" xmlns:serif="http://www.serif.com/" style="fill-rule:evenodd;clip-rule:evenodd;stroke-linejoin:round;stroke-miterlimit:2;">
    <g transform="matrix(1,0,0,1,-17,-84)">
        <g id="voiced-epiglotal-trill" serif:id="voiced epiglotal trill" transform="matrix(1,0,0,1,17,84.9496)">
            <rect x="0" y="0" width="16" height="16" style="fill:none;"/>
            <g id="consonant" transform="matrix(1,0,0,1,-17,-84.9496)">
                <path d="M21.5,98.616L28.5,98.616C28.73,98.616 28.917,98.43 28.917,98.2C28.917,97.97 28.73,97.783 28.5,97.783L21.5,97.783C21.27,97.783 21.083,97.97 21.083,98.2C21.083,98.43 21.27,98.616 21.5,98.616ZM24.583,89.844L24.583,96.45C24.583,96.68 24.77,96.866 25,96.866C25.23,96.866 25.417,96.68 25.417,96.45L25.417,89.844C27.383,89.636 28.917,87.97 28.917,85.95C28.917,85.72 28.73,85.533 28.5,85.533C28.27,85.533 28.083,85.72 28.083,85.95C28.083,87.651 26.702,89.033 25,89.033C23.298,89.033 21.917,87.651 21.917,85.95C21.917,85.72 21.73,85.533 21.5,85.533C21.27,85.533 21.083,85.72 21.083,85.95C21.083,87.971 22.617,89.636 24.583,89.844ZM25,86.849C25.46,86.849 25.833,87.223 25.833,87.683C25.833,88.143 25.46,88.516 25,88.516C24.54,88.516 24.167,88.143 24.167,87.683C24.167,87.223 24.54,86.849 25,86.849Z"/>
            </g>
        </g>
    </g>
</svg>
