<?xml version="1.0" encoding="UTF-8" standalone="no"?>
<!DOCTYPE svg PUBLIC "-//W3C//DTD SVG 1.1//EN" "http://www.w3.org/Graphics/SVG/1.1/DTD/svg11.dtd">
<svg width="100%" height="100%" viewBox="0 0 16 16" version="1.1" xmlns="http://www.w3.org/2000/svg" xmlns:xlink="http://www.w3.org/1999/xlink" xml:space="preserve" xmlns:serif="http://www.serif.com/" style="fill-rule:evenodd;clip-rule:evenodd;stroke-linejoin:round;stroke-miterlimit:2;">
    <g transform="matrix(1,0,0,1,-17,0)">
        <g id="voiced-labiodental" serif:id="voiced labiodental" transform="matrix(1,0,0,1,17,0)">
            <rect x="0" y="0" width="16" height="16" style="fill:none;"/>
            <g id="consonant" transform="matrix(1,0,0,1,-17,0)">
                <path d="M24.583,4.895L24.583,7.555C23.078,7.352 21.917,6.06 21.917,4.5C21.917,4.27 21.73,4.083 21.5,4.083C21.27,4.083 21.083,4.27 21.083,4.5C21.083,5.751 21.671,6.866 22.586,7.583L21.5,7.583C21.27,7.583 21.083,7.77 21.083,8C21.083,8.23 21.27,8.417 21.5,8.417L24.583,8.417L24.583,11.5C24.583,11.73 24.77,11.917 25,11.917C25.23,11.917 25.417,11.73 25.417,11.5L25.417,8.417L28.5,8.417C28.73,8.417 28.917,8.23 28.917,8C28.917,7.77 28.73,7.583 28.5,7.583L27.414,7.583C28.329,6.866 28.917,5.751 28.917,4.5C28.917,4.27 28.73,4.083 28.5,4.083C28.27,4.083 28.083,4.27 28.083,4.5C28.083,6.06 26.922,7.352 25.417,7.555L25.417,4.895C27.383,4.686 28.917,3.021 28.917,1C28.917,0.77 28.73,0.583 28.5,0.583C28.27,0.583 28.083,0.77 28.083,1C28.083,2.702 26.702,4.083 25,4.083C23.298,4.083 21.917,2.702 21.917,1C21.917,0.77 21.73,0.583 21.5,0.583C21.27,0.583 21.083,0.77 21.083,1C21.083,3.021 22.617,4.687 24.583,4.895Z"/>
            </g>
        </g>
    </g>
</svg>
