<?xml version="1.0" encoding="UTF-8" standalone="no"?>
<!DOCTYPE svg PUBLIC "-//W3C//DTD SVG 1.1//EN" "http://www.w3.org/Graphics/SVG/1.1/DTD/svg11.dtd">
<svg width="100%" height="100%" viewBox="0 0 16 16" version="1.1" xmlns="http://www.w3.org/2000/svg" xmlns:xlink="http://www.w3.org/1999/xlink" xml:space="preserve" xmlns:serif="http://www.serif.com/" style="fill-rule:evenodd;clip-rule:evenodd;stroke-linejoin:round;stroke-miterlimit:2;">
    <g transform="matrix(1,0,0,1,-18,-18)">
        <g id="voiced-alveolar" serif:id="voiced alveolar" transform="matrix(1,0,0,1,18,18)">
            <rect x="0" y="0" width="16" height="16" style="fill:none;"/>
            <g id="consonant" transform="matrix(1,0,0,1,-18,-18)">
                <path d="M25.583,22.917L25.583,25.605C23.617,25.814 22.083,27.479 22.083,29.5C22.083,29.73 22.27,29.917 22.5,29.917C22.73,29.917 22.917,29.73 22.917,29.5C22.917,27.939 24.078,26.648 25.583,26.445L25.583,29.5C25.583,29.73 25.77,29.917 26,29.917C26.23,29.917 26.417,29.73 26.417,29.5L26.417,26.445C27.922,26.648 29.083,27.94 29.083,29.5C29.083,29.73 29.27,29.917 29.5,29.917C29.73,29.917 29.917,29.73 29.917,29.5C29.917,27.479 28.383,25.813 26.417,25.605L26.417,22.917L29.5,22.917C29.73,22.917 29.917,22.73 29.917,22.5C29.917,22.27 29.73,22.083 29.5,22.083L22.5,22.083C22.27,22.083 22.083,22.27 22.083,22.5C22.083,22.73 22.27,22.917 22.5,22.917L25.583,22.917Z"/>
            </g>
        </g>
    </g>
</svg>
