<?xml version="1.0" encoding="UTF-8" standalone="no"?>
<!DOCTYPE svg PUBLIC "-//W3C//DTD SVG 1.1//EN" "http://www.w3.org/Graphics/SVG/1.1/DTD/svg11.dtd">
<svg width="100%" height="100%" viewBox="0 0 16 16" version="1.1" xmlns="http://www.w3.org/2000/svg" xmlns:xlink="http://www.w3.org/1999/xlink" xml:space="preserve" xmlns:serif="http://www.serif.com/" style="fill-rule:evenodd;clip-rule:evenodd;stroke-linejoin:round;stroke-miterlimit:2;">
    <g transform="matrix(1,0,0,1,-17,-34)">
        <g id="voiceless-alveolar" serif:id="voiceless alveolar" transform="matrix(1,0,0,1,17,34)">
            <rect x="0" y="0" width="16" height="16" style="fill:none;"/>
            <g id="consonant" transform="matrix(1,0,0,1,-17,-34)">
                <path d="M25,46.417C25.46,46.417 25.833,46.79 25.833,47.25C25.833,47.71 25.46,48.083 25,48.083C24.54,48.083 24.167,47.71 24.167,47.25C24.167,46.79 24.54,46.417 25,46.417ZM24.583,38.5L24.583,41.583L21.5,41.583C21.27,41.583 21.083,41.77 21.083,42C21.083,42.23 21.27,42.417 21.5,42.417L22.586,42.417C21.671,43.134 21.083,44.249 21.083,45.5C21.083,45.73 21.27,45.917 21.5,45.917C21.73,45.917 21.917,45.73 21.917,45.5C21.917,43.939 23.078,42.648 24.583,42.445L24.583,45.5C24.583,45.73 24.77,45.917 25,45.917C25.23,45.917 25.417,45.73 25.417,45.5L25.417,42.445C26.922,42.648 28.083,43.94 28.083,45.5C28.083,45.73 28.27,45.917 28.5,45.917C28.73,45.917 28.917,45.73 28.917,45.5C28.917,44.249 28.329,43.134 27.414,42.417L28.5,42.417C28.73,42.417 28.917,42.23 28.917,42C28.917,41.77 28.73,41.583 28.5,41.583L25.417,41.583L25.417,38.483C25.417,36.781 26.798,35.4 28.5,35.4C28.73,35.4 28.917,35.213 28.917,34.983C28.917,34.753 28.73,34.566 28.5,34.566C26.967,34.566 25.639,35.449 24.996,36.733C24.35,35.458 23.026,34.583 21.5,34.583C21.27,34.583 21.083,34.77 21.083,35C21.083,35.23 21.27,35.417 21.5,35.417C23.202,35.417 24.583,36.798 24.583,38.5Z"/>
            </g>
        </g>
    </g>
</svg>
