<?xml version="1.0" encoding="UTF-8" standalone="no"?>
<!DOCTYPE svg PUBLIC "-//W3C//DTD SVG 1.1//EN" "http://www.w3.org/Graphics/SVG/1.1/DTD/svg11.dtd">
<svg width="100%" height="100%" viewBox="0 0 16 16" version="1.1" xmlns="http://www.w3.org/2000/svg" xmlns:xlink="http://www.w3.org/1999/xlink" xml:space="preserve" xmlns:serif="http://www.serif.com/" style="fill-rule:evenodd;clip-rule:evenodd;stroke-linejoin:round;stroke-miterlimit:2;">
    <g transform="matrix(1,0,0,1,-17,-51)">
        <g id="voiceless-bilabial" serif:id="voiceless bilabial" transform="matrix(1,0,0,1,17,51)">
            <rect x="0" y="0" width="16" height="16" style="fill:none;"/>
            <g id="consonant" transform="matrix(1,0,0,1,-17,-51)">
                <path d="M25,63.417C25.46,63.417 25.833,63.79 25.833,64.25C25.833,64.71 25.46,65.083 25,65.083C24.54,65.083 24.167,64.71 24.167,64.25C24.167,63.79 24.54,63.417 25,63.417ZM25.417,58.555L25.417,55.483C25.417,53.781 26.798,52.4 28.5,52.4C28.73,52.4 28.917,52.213 28.917,51.983C28.917,51.753 28.73,51.566 28.5,51.566C26.967,51.566 25.639,52.449 24.996,53.733C24.35,52.458 23.026,51.583 21.5,51.583C21.27,51.583 21.083,51.77 21.083,52C21.083,52.23 21.27,52.417 21.5,52.417C23.202,52.417 24.583,53.798 24.583,55.5L24.583,58.555C23.078,58.352 21.917,57.06 21.917,55.5C21.917,55.27 21.73,55.083 21.5,55.083C21.27,55.083 21.083,55.27 21.083,55.5C21.083,57.521 22.617,59.187 24.583,59.395L24.583,62.5C24.583,62.73 24.77,62.917 25,62.917C25.23,62.917 25.417,62.73 25.417,62.5L25.417,59.395C27.383,59.186 28.917,57.521 28.917,55.5C28.917,55.27 28.73,55.083 28.5,55.083C28.27,55.083 28.083,55.27 28.083,55.5C28.083,57.06 26.922,58.352 25.417,58.555Z"/>
            </g>
        </g>
    </g>
</svg>
