<?xml version="1.0" encoding="UTF-8" standalone="no"?>
<!DOCTYPE svg PUBLIC "-//W3C//DTD SVG 1.1//EN" "http://www.w3.org/Graphics/SVG/1.1/DTD/svg11.dtd">
<svg width="100%" height="100%" viewBox="0 0 16 16" version="1.1" xmlns="http://www.w3.org/2000/svg" xmlns:xlink="http://www.w3.org/1999/xlink" xml:space="preserve" xmlns:serif="http://www.serif.com/" style="fill-rule:evenodd;clip-rule:evenodd;stroke-linejoin:round;stroke-miterlimit:2;">
    <g transform="matrix(1,0,0,1,0,-126)">
        <g id="voiceless-glottal" serif:id="voiceless glottal" transform="matrix(1,0,0,1,0,126)">
            <rect x="0" y="0" width="16" height="16" style="fill:none;"/>
            <g id="consonant" transform="matrix(1,0,0,1,0,-126)">
                <path d="M7.278,138.833C7.422,138.584 7.692,138.417 8,138.417C8.308,138.417 8.578,138.584 8.722,138.833L11.5,138.833C11.73,138.833 11.917,139.02 11.917,139.25C11.917,139.48 11.73,139.667 11.5,139.667L8.722,139.667C8.578,139.916 8.308,140.083 8,140.083C7.692,140.083 7.422,139.916 7.278,139.667L4.5,139.667C4.27,139.667 4.083,139.48 4.083,139.25C4.083,139.02 4.27,138.833 4.5,138.833L7.278,138.833ZM7.583,130.917L7.583,137.5C7.583,137.73 7.77,137.917 8,137.917C8.23,137.917 8.417,137.73 8.417,137.5L8.417,130.917L11.5,130.917C11.73,130.917 11.917,130.73 11.917,130.5C11.917,130.27 11.73,130.083 11.5,130.083L4.5,130.083C4.27,130.083 4.083,130.27 4.083,130.5C4.083,130.73 4.27,130.917 4.5,130.917L7.583,130.917Z"/>
            </g>
        </g>
    </g>
</svg>
