<?xml version="1.0" encoding="UTF-8" standalone="no"?>
<!DOCTYPE svg PUBLIC "-//W3C//DTD SVG 1.1//EN" "http://www.w3.org/Graphics/SVG/1.1/DTD/svg11.dtd">
<svg width="100%" height="100%" viewBox="0 0 16 16" version="1.1" xmlns="http://www.w3.org/2000/svg" xmlns:xlink="http://www.w3.org/1999/xlink" xml:space="preserve" xmlns:serif="http://www.serif.com/" style="fill-rule:evenodd;clip-rule:evenodd;stroke-linejoin:round;stroke-miterlimit:2;">
    <rect id="voiceless-bilabial" serif:id="voiceless bilabial" x="0" y="0" width="16" height="16" style="fill:none;"/>
    <g id="voiceless-bilabial1" serif:id="voiceless bilabial">
        <path id="consonant" d="M8,12.417C8.46,12.417 8.833,12.79 8.833,13.25C8.833,13.71 8.46,14.083 8,14.083C7.54,14.083 7.167,13.71 7.167,13.25C7.167,12.79 7.54,12.417 8,12.417ZM11.529,4.084L11.5,4.083L4.5,4.083C4.305,4.083 4.141,4.217 4.096,4.398L4.089,4.434L4.085,4.465L4.083,4.5C4.083,6.521 5.617,8.187 7.583,8.395L7.583,11.5C7.583,11.73 7.77,11.917 8,11.917C8.23,11.917 8.417,11.73 8.417,11.5L8.417,8.395C10.383,8.186 11.917,6.521 11.917,4.5L11.915,4.467L11.912,4.436L11.905,4.402L11.896,4.369L11.884,4.338L11.871,4.31L11.856,4.284L11.838,4.257L11.818,4.231L11.793,4.204L11.768,4.181L11.743,4.161L11.715,4.143L11.687,4.127L11.657,4.114L11.623,4.102L11.592,4.093L11.561,4.088L11.529,4.084ZM11.055,4.917L8.417,4.917L8.417,7.555C9.785,7.37 10.87,6.285 11.055,4.917ZM4.945,4.917C5.13,6.285 6.215,7.37 7.583,7.555L7.583,4.917L4.945,4.917Z"/>
    </g>
</svg>
