<?xml version="1.0" encoding="UTF-8" standalone="no"?>
<!DOCTYPE svg PUBLIC "-//W3C//DTD SVG 1.1//EN" "http://www.w3.org/Graphics/SVG/1.1/DTD/svg11.dtd">
<svg width="100%" height="100%" viewBox="0 0 16 16" version="1.1" xmlns="http://www.w3.org/2000/svg" xmlns:xlink="http://www.w3.org/1999/xlink" xml:space="preserve" xmlns:serif="http://www.serif.com/" style="fill-rule:evenodd;clip-rule:evenodd;stroke-linejoin:round;stroke-miterlimit:2;">
    <g transform="matrix(1,0,0,1,0,-90)">
        <g id="voiceless-uvular" serif:id="voiceless uvular" transform="matrix(1,0,0,1,7.10543e-15,90)">
            <rect x="0" y="0" width="16" height="16" style="fill:none;"/>
            <g id="consonant" transform="matrix(1,0,0,1,-7.10543e-15,-90)">
                <path d="M7.975,105.417L8,105.417C10.162,105.417 11.917,103.662 11.917,101.5C11.917,101.27 11.73,101.083 11.5,101.083C11.27,101.083 11.083,101.27 11.083,101.5C11.083,103.195 9.712,104.573 8.02,104.583L8,104.583C6.298,104.583 4.917,103.202 4.917,101.5C4.917,101.27 4.73,101.083 4.5,101.083C4.27,101.083 4.083,101.27 4.083,101.5C4.083,103.653 5.825,105.403 7.975,105.417ZM8,102.417C8.46,102.417 8.833,102.79 8.833,103.25C8.833,103.71 8.46,104.083 8,104.083C7.54,104.083 7.167,103.71 7.167,103.25C7.167,102.79 7.54,102.417 8,102.417ZM7.583,94.917L7.583,101.5C7.583,101.73 7.77,101.917 8,101.917C8.23,101.917 8.417,101.73 8.417,101.5L8.417,94.917L11.5,94.917C11.73,94.917 11.917,94.73 11.917,94.5C11.917,94.27 11.73,94.083 11.5,94.083L4.5,94.083C4.27,94.083 4.083,94.27 4.083,94.5C4.083,94.73 4.27,94.917 4.5,94.917L7.583,94.917Z"/>
            </g>
        </g>
    </g>
</svg>
