<?xml version="1.0" encoding="UTF-8" standalone="no"?>
<!DOCTYPE svg PUBLIC "-//W3C//DTD SVG 1.1//EN" "http://www.w3.org/Graphics/SVG/1.1/DTD/svg11.dtd">
<svg width="100%" height="100%" viewBox="0 0 16 16" version="1.1" xmlns="http://www.w3.org/2000/svg" xmlns:xlink="http://www.w3.org/1999/xlink" xml:space="preserve" xmlns:serif="http://www.serif.com/" style="fill-rule:evenodd;clip-rule:evenodd;stroke-linejoin:round;stroke-miterlimit:2;">
    <g transform="matrix(1,0,0,1,0,-34)">
        <g id="voiced-alveolar" serif:id="voiced alveolar" transform="matrix(1,0,0,1,3.55271e-15,34)">
            <rect x="0" y="0" width="16" height="16" style="fill:none;"/>
            <g id="consonant" transform="matrix(1,0,0,1,-3.55271e-15,-34)">
                <path d="M7.583,38.5L7.583,41.583L4.5,41.583C4.27,41.583 4.083,41.77 4.083,42C4.083,42.23 4.27,42.417 4.5,42.417L5.586,42.417C4.671,43.134 4.083,44.249 4.083,45.5C4.083,45.73 4.27,45.917 4.5,45.917C4.73,45.917 4.917,45.73 4.917,45.5C4.917,43.939 6.078,42.648 7.583,42.445L7.583,45.5C7.583,45.73 7.77,45.917 8,45.917C8.23,45.917 8.417,45.73 8.417,45.5L8.417,42.445C9.922,42.648 11.083,43.94 11.083,45.5C11.083,45.73 11.27,45.917 11.5,45.917C11.73,45.917 11.917,45.73 11.917,45.5C11.917,44.249 11.329,43.134 10.414,42.417L11.5,42.417C11.73,42.417 11.917,42.23 11.917,42C11.917,41.77 11.73,41.583 11.5,41.583L8.417,41.583L8.417,38.483C8.417,36.781 9.798,35.4 11.5,35.4C11.73,35.4 11.917,35.213 11.917,34.983C11.917,34.753 11.73,34.566 11.5,34.566C9.967,34.566 8.639,35.449 7.996,36.733C7.35,35.458 6.026,34.583 4.5,34.583C4.27,34.583 4.083,34.77 4.083,35C4.083,35.23 4.27,35.417 4.5,35.417C6.202,35.417 7.583,36.798 7.583,38.5Z"/>
            </g>
        </g>
    </g>
</svg>
