<?xml version="1.0" encoding="UTF-8" standalone="no"?>
<!DOCTYPE svg PUBLIC "-//W3C//DTD SVG 1.1//EN" "http://www.w3.org/Graphics/SVG/1.1/DTD/svg11.dtd">
<svg width="100%" height="100%" viewBox="0 0 16 17" version="1.1" xmlns="http://www.w3.org/2000/svg" xmlns:xlink="http://www.w3.org/1999/xlink" xml:space="preserve" xmlns:serif="http://www.serif.com/" style="fill-rule:evenodd;clip-rule:evenodd;stroke-linejoin:round;stroke-miterlimit:2;">
    <g transform="matrix(1,0,0,1,0,-84)">
        <g id="voiceless-epiglotal-trill" serif:id="voiceless epiglotal trill" transform="matrix(1,0,0,1,0,84.9496)">
            <rect x="0" y="0" width="16" height="16" style="fill:none;"/>
            <g id="consonant" transform="matrix(1,0,0,1,0,-84.9496)">
                <path d="M7.278,97.783C7.422,97.534 7.692,97.366 8,97.366C8.308,97.366 8.578,97.534 8.722,97.783L11.5,97.783C11.73,97.783 11.917,97.97 11.917,98.2C11.917,98.43 11.73,98.616 11.5,98.616L8.722,98.616C8.578,98.865 8.308,99.033 8,99.033C7.692,99.033 7.422,98.865 7.278,98.616L4.5,98.616C4.27,98.616 4.083,98.43 4.083,98.2C4.083,97.97 4.27,97.783 4.5,97.783L7.278,97.783ZM7.583,89.844L7.583,96.45C7.583,96.68 7.77,96.866 8,96.866C8.23,96.866 8.417,96.68 8.417,96.45L8.417,89.844C10.383,89.636 11.917,87.97 11.917,85.95C11.917,85.72 11.73,85.533 11.5,85.533C11.27,85.533 11.083,85.72 11.083,85.95C11.083,87.651 9.702,89.033 8,89.033C6.298,89.033 4.917,87.651 4.917,85.95C4.917,85.72 4.73,85.533 4.5,85.533C4.27,85.533 4.083,85.72 4.083,85.95C4.083,87.971 5.617,89.636 7.583,89.844ZM8,86.849C8.46,86.849 8.833,87.223 8.833,87.683C8.833,88.143 8.46,88.516 8,88.516C7.54,88.516 7.167,88.143 7.167,87.683C7.167,87.223 7.54,86.849 8,86.849Z"/>
            </g>
        </g>
    </g>
</svg>
