<?xml version="1.0" encoding="UTF-8" standalone="no"?>
<!DOCTYPE svg PUBLIC "-//W3C//DTD SVG 1.1//EN" "http://www.w3.org/Graphics/SVG/1.1/DTD/svg11.dtd">
<svg width="100%" height="100%" viewBox="0 0 16 16" version="1.1" xmlns="http://www.w3.org/2000/svg" xmlns:xlink="http://www.w3.org/1999/xlink" xml:space="preserve" xmlns:serif="http://www.serif.com/" style="fill-rule:evenodd;clip-rule:evenodd;stroke-linejoin:round;stroke-miterlimit:2;">
    <g transform="matrix(1,0,0,1,0,-18)">
        <g id="voiceless-alveolar" serif:id="voiceless alveolar" transform="matrix(1,0,0,1,0,18)">
            <rect x="0" y="0" width="16" height="16" style="fill:none;"/>
            <g id="consonant" transform="matrix(1,0,0,1,0,-18)">
                <path d="M8,30.417C8.46,30.417 8.833,30.79 8.833,31.25C8.833,31.71 8.46,32.083 8,32.083C7.54,32.083 7.167,31.71 7.167,31.25C7.167,30.79 7.54,30.417 8,30.417ZM7.583,22.917L7.583,25.605C5.617,25.814 4.083,27.479 4.083,29.5C4.083,29.73 4.27,29.917 4.5,29.917C4.73,29.917 4.917,29.73 4.917,29.5C4.917,27.939 6.078,26.648 7.583,26.445L7.583,29.5C7.583,29.73 7.77,29.917 8,29.917C8.23,29.917 8.417,29.73 8.417,29.5L8.417,26.445C9.922,26.648 11.083,27.94 11.083,29.5C11.083,29.73 11.27,29.917 11.5,29.917C11.73,29.917 11.917,29.73 11.917,29.5C11.917,27.479 10.383,25.813 8.417,25.605L8.417,22.917L11.5,22.917C11.73,22.917 11.917,22.73 11.917,22.5C11.917,22.27 11.73,22.083 11.5,22.083L4.5,22.083C4.27,22.083 4.083,22.27 4.083,22.5C4.083,22.73 4.27,22.917 4.5,22.917L7.583,22.917Z"/>
            </g>
        </g>
    </g>
</svg>
