<?xml version="1.0" encoding="UTF-8" standalone="no"?>
<!DOCTYPE svg PUBLIC "-//W3C//DTD SVG 1.1//EN" "http://www.w3.org/Graphics/SVG/1.1/DTD/svg11.dtd">
<svg width="100%" height="100%" viewBox="0 0 16 16" version="1.1" xmlns="http://www.w3.org/2000/svg" xmlns:xlink="http://www.w3.org/1999/xlink" xml:space="preserve" xmlns:serif="http://www.serif.com/" style="fill-rule:evenodd;clip-rule:evenodd;stroke-linejoin:round;stroke-miterlimit:2;">
    <g transform="matrix(1,0,0,1,0,-36)">
        <g id="voiceless-retroflex" serif:id="voiceless retroflex" transform="matrix(1,0,0,1,1.06581e-14,36)">
            <rect x="0" y="0" width="16" height="16" style="fill:none;"/>
            <g id="consonant" transform="matrix(1,0,0,1,-1.06581e-14,-36)">
                <path d="M8,48.417C8.46,48.417 8.833,48.79 8.833,49.25C8.833,49.71 8.46,50.083 8,50.083C7.54,50.083 7.167,49.71 7.167,49.25C7.167,48.79 7.54,48.417 8,48.417ZM7.583,40.917L7.583,47.055C6.078,46.852 4.917,45.56 4.917,44C4.917,43.77 4.73,43.583 4.5,43.583C4.27,43.583 4.083,43.77 4.083,44C4.083,46.153 5.825,47.903 7.975,47.917L8,47.917C10.162,47.917 11.917,46.162 11.917,44C11.917,43.77 11.73,43.583 11.5,43.583C11.27,43.583 11.083,43.77 11.083,44C11.083,45.561 9.922,46.852 8.417,47.055L8.417,40.917L11.5,40.917C11.73,40.917 11.917,40.73 11.917,40.5C11.917,40.27 11.73,40.083 11.5,40.083L4.5,40.083C4.27,40.083 4.083,40.27 4.083,40.5C4.083,40.73 4.27,40.917 4.5,40.917L7.583,40.917Z"/>
            </g>
        </g>
    </g>
</svg>
