<?xml version="1.0" encoding="UTF-8" standalone="no"?>
<!DOCTYPE svg PUBLIC "-//W3C//DTD SVG 1.1//EN" "http://www.w3.org/Graphics/SVG/1.1/DTD/svg11.dtd">
<svg width="100%" height="100%" viewBox="0 0 16 16" version="1.1" xmlns="http://www.w3.org/2000/svg" xmlns:xlink="http://www.w3.org/1999/xlink" xml:space="preserve" xmlns:serif="http://www.serif.com/" style="fill-rule:evenodd;clip-rule:evenodd;stroke-linejoin:round;stroke-miterlimit:2;">
    <g transform="matrix(1,0,0,1,-17,0)">
        <g id="voiceless-velar" serif:id="voiceless velar" transform="matrix(1,0,0,1,17,0)">
            <rect x="0" y="0" width="16" height="16" style="fill:none;"/>
            <g id="consonant" transform="matrix(1,0,0,1,-17,0)">
                <path d="M24.583,4.5L24.583,11.105C22.617,11.314 21.083,12.979 21.083,15C21.083,15.23 21.27,15.417 21.5,15.417C21.73,15.417 21.917,15.23 21.917,15C21.917,13.305 23.288,11.927 24.98,11.917L25,11.917C26.702,11.917 28.083,13.298 28.083,15C28.083,15.23 28.27,15.417 28.5,15.417C28.73,15.417 28.917,15.23 28.917,15C28.917,12.979 27.383,11.313 25.417,11.105L25.417,4.483C25.417,2.781 26.798,1.4 28.5,1.4C28.73,1.4 28.917,1.213 28.917,0.983C28.917,0.753 28.73,0.566 28.5,0.566C26.967,0.566 25.639,1.449 24.996,2.733C24.35,1.458 23.026,0.583 21.5,0.583C21.27,0.583 21.083,0.77 21.083,1C21.083,1.23 21.27,1.417 21.5,1.417C23.202,1.417 24.583,2.798 24.583,4.5ZM25,12.417C25.46,12.417 25.833,12.79 25.833,13.25C25.833,13.71 25.46,14.083 25,14.083C24.54,14.083 24.167,13.71 24.167,13.25C24.167,12.79 24.54,12.417 25,12.417Z"/>
            </g>
        </g>
    </g>
</svg>
